<?xml version="1.0" encoding="UTF-8" standalone="no"?>
<!-- Created with Inkscape (http://www.inkscape.org/) -->

<svg
   xmlns:dc="http://purl.org/dc/elements/1.1/"
   xmlns:cc="http://creativecommons.org/ns#"
   xmlns:rdf="http://www.w3.org/1999/02/22-rdf-syntax-ns#"
   xmlns:svg="http://www.w3.org/2000/svg"
   xmlns="http://www.w3.org/2000/svg"
   xmlns:sodipodi="http://sodipodi.sourceforge.net/DTD/sodipodi-0.dtd"
   xmlns:inkscape="http://www.inkscape.org/namespaces/inkscape"
   width="500"
   height="500"
   viewBox="0 0 500 500"
   version="1.1"
   id="svg8"
   inkscape:version="0.92.1 r15371"
   sodipodi:docname="01.svg">
  <defs
     id="defs2" />
  <sodipodi:namedview
     id="base"
     pagecolor="#ffffff"
     bordercolor="#666666"
     borderopacity="1.0"
     inkscape:pageopacity="0.0"
     inkscape:pageshadow="2"
     inkscape:zoom="0.996"
     inkscape:cx="250"
     inkscape:cy="250"
     inkscape:document-units="mm"
     inkscape:current-layer="layer1"
     showgrid="false"
     inkscape:snap-tangential="false"
     inkscape:window-width="1366"
     inkscape:window-height="723"
     inkscape:window-x="0"
     inkscape:window-y="0"
     inkscape:window-maximized="1"
     inkscape:snap-page="true"
     inkscape:snap-global="true">
    <inkscape:grid
       type="xygrid"
       id="grid4531"
       dotted="false"
       color="#000000"
       opacity="0.1254902"
       empcolor="#000000"
       empopacity="0.25098039"
       snapvisiblegridlinesonly="true"
       originx="0"
       originy="0"
       spacingx="1.47"
       spacingy="1.47"
       visible="true"
       enabled="true"
       empspacing="5" />
  </sodipodi:namedview>
  <metadata
     id="metadata5">
    <rdf:RDF>
      <cc:Work
         rdf:about="">
        <dc:format>image/svg+xml</dc:format>
        <dc:type
           rdf:resource="http://purl.org/dc/dcmitype/StillImage" />
        <dc:title />
      </cc:Work>
    </rdf:RDF>
  </metadata>
  <g
     inkscape:label="Layer 1"
     inkscape:groupmode="layer"
     id="layer1"
     transform="translate(0,-151.98047)">
    <circle
       r="172.1916"
       cy="412.95361"
       cx="253.80588"
       id="circle5439"
       style="opacity:1;fill:none;fill-opacity:1;stroke:#ff857a;stroke-width:5.6692915;stroke-linecap:round;stroke-linejoin:round;stroke-miterlimit:4;stroke-dasharray:none;stroke-opacity:1;paint-order:fill markers stroke" />
    <circle
       style="opacity:1;fill:#fee394;fill-opacity:1;stroke:none;stroke-width:1.00157475;stroke-linecap:round;stroke-linejoin:round;stroke-miterlimit:4;stroke-dasharray:none;stroke-opacity:1;paint-order:fill markers stroke"
       id="path4838"
       cx="253.80589"
       cy="412.95364"
       r="155.12334" />
    <path
       sodipodi:nodetypes="csscscsccscssc"
       inkscape:connector-curvature="0"
       id="path4979"
       d="m 334.58835,328.6873 c 0,0 2.2202,-9.24512 0.59088,-10.70171 -0.96174,-0.85979 0.85854,-5.00644 1.66816,-6.86857 2.51004,-5.7731 7.68977,-14.92583 11.11138,-18.014 12.97634,3.45576 40.20302,-5.46842 43.8585,-40.46994 4.65962,-44.61619 -37.65821,-45.72471 -37.65821,-45.72471 -1.11822,-9.72535 -11.71574,-32.29904 -36.13697,-36.6046 -28.76707,-5.07175 -46.0651,12.98782 -50.71412,18.7907 -4.89701,-4.98548 -14.34655,-6.49151 -18.81399,-6.49151 -6.90787,0 -32.47932,5.27109 -40.66265,32.37952 -10.57894,35.04422 19.68097,50.45594 19.68097,50.45594 0.0722,4.86458 -1.03578,10.7921 -1.60869,14.5541 -0.78483,5.15362 -3.05879,12.073 -3.58713,12.1198 -1.50229,0.13305 -3.645,5.49044 -3.645,6.98435"
       style="fill:#f6f6f6;fill-opacity:1;stroke:none;stroke-width:1px;stroke-linecap:round;stroke-linejoin:miter;stroke-opacity:1" />
    <path
       style="fill:#ffffff;fill-opacity:1;stroke:none;stroke-width:1px;stroke-linecap:butt;stroke-linejoin:miter;stroke-opacity:1"
       d="m 263.30321,203.43629 c 20.40503,-23.76478 46.23992,-31.69249 78.0036,-22.32788 0,0 -22.71829,-17.21621 -48.09888,-9.40679 -25.38059,7.80941 -29.90472,31.73467 -29.90472,31.73467 z"
       id="path5796"
       inkscape:connector-curvature="0"
       sodipodi:nodetypes="ccsc" />
    <path
       style="fill:#ffffff;stroke:none;stroke-width:1px;stroke-linecap:butt;stroke-linejoin:miter;stroke-opacity:1"
       d="m 240.31691,294.87735 6.03455,-51.11616 c -13.4971,-2.83979 -27.50783,-23.20304 -19.34605,-39.22455 6.98808,-13.71753 22.21872,-20.76593 40.11198,-15.44133 1.95236,-3.37224 -9.05181,-5.3246 -9.05181,-5.3246 0,0 -31.23765,-7.09947 -45.79156,20.58845 -14.5539,27.68791 0.70995,48.98631 0.70995,48.98631 0,0 12.42407,11.00417 13.84396,11.71412 1.41989,0.70995 -1.77487,20.58845 -1.77487,20.58845 l -2.48481,6.03455 -2.12984,2.12984 c 0,0 -1.41989,2.12984 -1.41989,3.54973 v 1.41989 c 0,0 2.12984,-1.41989 8.87433,-2.12984 6.74449,-0.70994 12.42406,-1.77486 12.42406,-1.77486 z"
       id="path5612"
       inkscape:connector-curvature="0"
       sodipodi:nodetypes="ccsccscscccsccc" />
    <path
       style="fill:#000000;fill-opacity:0.05045872;stroke:none;stroke-width:1px;stroke-linecap:butt;stroke-linejoin:miter;stroke-opacity:1"
       d="m 309.89168,309.07628 c 12.07158,-5.88765 22.38943,-36.82602 21.29839,-50.05124 0,0 11.70077,8.01565 18.45862,8.51936 8.88531,0.66227 17.94453,-0.4092 25.66205,-7.47966 14.90968,-13.65959 12.99552,-32.05384 3.71713,-42.81342 11.85723,8.58473 15.96175,19.69921 11.79772,39.99886 0,0 -2.48482,19.8785 -16.32878,29.10781 -13.84395,9.2293 -26.97796,6.38952 -26.97796,6.38952 0,0 -6.7445,10.29422 -8.51936,14.5539 -1.77487,4.25968 -3.54974,9.93925 -3.54974,9.93925 l 0.35498,5.3246 -1.06492,5.67957 c 0,0 -4.61466,-6.03454 -11.35915,-11.00417 -6.74449,-4.96962 -13.48898,-8.16438 -13.48898,-8.16438 z"
       id="path5614"
       inkscape:connector-curvature="0"
       sodipodi:nodetypes="ccssccscccccsc" />
    <path
       sodipodi:nodetypes="csssssssccssssccscsc"
       inkscape:connector-curvature="0"
       id="path5090"
       d="m 168.22837,470.7199 c 0,0 -6.11023,-5.21757 -3.06773,-20.54666 2.68362,-13.52092 10.48127,-26.98662 11.54619,-34.63855 0.76117,-5.46938 2.00803,-19.07631 -0.50201,-34.63856 -2.51004,-15.56225 1.29808,-36.81884 7.32218,-49.36904 6.02409,-12.5502 17.4392,-24.68127 30.07525,-30.57204 11.64717,-5.42976 45.18639,-9.97416 69.68254,-3.33135 24.39634,6.61575 44.59172,20.70715 53.5626,33.98951 6.3141,9.3487 18.5743,33.72067 10.04016,53.29899 l 0.6313,10.77756 c 0,0 6.84026,6.101 7.80941,13.13401 1.25502,9.1075 -2.83979,26.26802 -2.83979,28.75284 0,2.48481 3.60014,9.8591 10.33729,15.80892 6.86227,6.06032 11.10814,15.05592 8.62333,26.06009 -2.48481,11.00417 -10.08629,26.9958 -22.86533,35.51516 -34.42499,35.29694 -53.37824,36.23538 -67.96127,33.10403 -4.5164,2.2582 -19.67018,-5.20273 -24.59839,-6.0241 -7.29845,-1.21641 -13.05659,-4.26816 -20.08032,-6.0241 -8.10152,-2.02537 -17.43158,1.0387 -25.60241,-1.00401 -10.4114,-2.60285 -41.82613,-52.17006 -42.113,-64.2927 z"
       style="fill:#ac7264;fill-opacity:1;stroke:none;stroke-width:1.00157475;stroke-linecap:butt;stroke-linejoin:miter;stroke-miterlimit:4;stroke-dasharray:none;stroke-opacity:1" />
    <path
       style="fill:#d39688;fill-opacity:1;stroke:none;stroke-width:1px;stroke-linecap:butt;stroke-linejoin:miter;stroke-opacity:1"
       d="m 305.47189,526.72947 c 0,0 -8.72216,-2.60342 -4.51877,-31.12546 2.44964,-16.62198 13.42531,-25.86676 14.80993,-44.42675 0.37985,18.99929 -14.80993,44.42675 -10.29116,75.55221 z"
       id="path5786"
       inkscape:connector-curvature="0"
       sodipodi:nodetypes="cscc" />
    <path
       style="fill:#d39688;fill-opacity:1;stroke:none;stroke-width:1px;stroke-linecap:butt;stroke-linejoin:miter;stroke-opacity:1"
       d="m 218.5748,334.98933 c -0.92364,-6.2712 -1.26206,-12.54239 -0.53246,-18.81359 -2.59247,6.0496 -2.78643,12.29108 0.53246,18.81359 z"
       id="path5610"
       inkscape:connector-curvature="0"
       sodipodi:nodetypes="ccc" />
    <path
       style="fill:#d39688;fill-opacity:1;stroke:none;stroke-width:1px;stroke-linecap:butt;stroke-linejoin:miter;stroke-opacity:1"
       d="m 243.4739,295.05276 c 0,0 -32.07177,8.30017 -39.40763,32.63052 -6.42021,21.29349 -11.43965,18.19549 -16.06426,34.63856 -4.57711,13.07047 -4.18657,19.53757 -5.36061,27.05525 -0.4586,2.93648 2.06609,33.80945 -1.49901,45.39177 -0.44141,1.43406 -6.45622,14.72627 -4.50369,36.76158 0.54796,6.18401 -8.73421,-0.0959 -9.58924,-1.96873 -6.58599,-14.4254 7.52865,-49.52206 10.91239,-60.55313 0,0 -0.25101,-13.30321 -0.75301,-18.5743 -0.50201,-5.27108 -5.02008,-38.40361 6.02409,-57.98192 11.04418,-19.57832 22.59036,-36.14458 60.24097,-37.3996 z"
       id="path5600"
       inkscape:connector-curvature="0"
       sodipodi:nodetypes="cscssssccsc" />
    <path
       style="fill:#000000;fill-opacity:0.31372549;stroke:none;stroke-width:1px;stroke-linecap:butt;stroke-linejoin:miter;stroke-opacity:1"
       d="m 197.90716,417.30746 c -8.43956,26.8961 2.71207,47.93952 2.29777,60.38113 -0.32896,9.87859 12.94616,12.60472 21.65337,17.39369 12.58769,6.92323 22.82869,12.20581 36.91722,14.5539 9.70872,1.61812 38.67976,-5.27016 40.82193,-13.84395 3.44597,-13.79208 14.74554,-34.68064 16.68375,-44.37167 2.139,-10.69503 2.47615,-16.06033 1.41989,-26.62299 -0.1904,-1.90401 -0.16129,-11.87541 -1.77487,-13.48899 -2.19033,-2.19033 -17.74238,0.0733 -20.23347,0 -5.98367,-0.17599 -11.8021,-1.23427 -17.74867,-1.77486 -30.35419,1.93326 -69.04595,-0.059 -80.03692,7.77374 z"
       id="path5598"
       inkscape:connector-curvature="0"
       sodipodi:nodetypes="csssssssccc" />
    <path
       inkscape:connector-curvature="0"
       style="fill:#fefefe;fill-opacity:1;stroke:none;stroke-width:1px;stroke-linecap:butt;stroke-linejoin:miter;stroke-opacity:1"
       d="m 265.06055,465.48438 c 0,0 -20.33075,1.00485 -23.0918,1.25586 -2.76104,0.251 -2.51172,4.26562 -2.51172,4.26562 0,0 -13.55409,2.26049 -19.07617,4.51953 -5.52209,2.25903 -11.04297,13.05078 -11.04297,13.05078 l -4.74219,71.34375 a 155.12334,155.12334 0 0 0 49.21094,8.15625 155.12334,155.12334 0 0 0 43.00391,-6.15429 c -4.37327,-6.46734 -3.63867,-38.20508 -3.63867,-38.20508 0.21299,-0.1065 0.23159,-14.23386 1.0039,-15.8125 0.61223,-1.25143 6.33599,-9.00258 6.77734,-16.81836 0,0 2.00881,-5.27039 -7.02734,-15.31055 -9.03614,-10.04016 -28.36328,-5.52148 -28.36328,-5.52148 z"
       id="path5094" />
    <path
       sodipodi:nodetypes="cscscscscscsccscsssssscc"
       inkscape:connector-curvature="0"
       id="path4941"
       d="m 326.80723,381.64914 c -13.89328,-1.47667 -36.91067,-9.03178 -52.96185,-23.84538 -16.05607,-14.81811 -25.86144,-38.90562 -25.86144,-53.46385 0,0 -5.77955,8.90227 -5.26305,21.71184 0.38198,9.47353 7.89032,23.08346 7.89032,23.08346 0,0 -13.43423,-10.40527 -14.18327,-24.15207 -0.6067,-11.13456 2.28383,-17.1528 3.9667,-20.42006 -3.07749,2.04173 -8.91171,7.8664 -10.85147,16.00595 -1.97771,8.29884 1.50602,20.04096 1.50602,20.04096 0,0 -8.73164,-6.82396 -6.14959,-18.95081 1.76703,-8.299 4.76385,-11.84265 8.31358,-15.81325 -3.99345,1.38318 -11.06239,8.50594 -12.95085,14.4112 -1.57122,4.91325 -1.63783,15.20728 -1.63783,15.20728 0,0 -3.49621,-7.16623 -1.98035,-15.13705 0,0 -2.59526,18.38919 -18.39157,36.49282 -15.79631,18.10364 -11.2029,18.51516 -11.2029,18.51516 0,0 1.70534,2.29774 0.70132,12.83991 -1.00401,10.54217 -2.24915,13.59526 -2.51004,21.83735 -0.29424,9.29571 8.82242,21.98983 17.57551,29.36747 10.60519,8.9387 22.83614,20.58233 37.64538,22.84136 14.80923,2.25904 17.7427,0.37778 25.35141,-2.51003 9.47242,-3.59517 28.11244,-16.31527 38.1526,-24.3474 10.04016,-8.03212 21.91087,-21.55589 23.6679,-30.09003 1.37954,-4.85767 2.029,-15.74989 -0.82653,-23.62483 z"
       style="fill:#fcd1ae;fill-opacity:1;stroke:none;stroke-width:1px;stroke-linecap:round;stroke-linejoin:miter;stroke-opacity:1" />
    <path
       style="fill:#eda366;fill-opacity:0.19266058;stroke:none;stroke-width:1px;stroke-linecap:butt;stroke-linejoin:miter;stroke-opacity:1"
       d="m 266.56627,458.95838 c 29.49666,-17.13907 61.38694,-60.88218 38.65461,-81.3253 0.25101,-1.50602 21.33535,5.02008 21.33535,5.02008 0,0 10.29116,17.57028 -9.28715,39.15663 -19.57832,21.58634 -50.70281,37.14859 -50.70281,37.14859 z"
       id="path5616"
       inkscape:connector-curvature="0"
       sodipodi:nodetypes="cccsc" />
    <path
       style="fill:#ffffff;fill-opacity:0.31372549;stroke:none;stroke-width:1px;stroke-linecap:butt;stroke-linejoin:miter;stroke-opacity:1"
       d="m 210.59237,338.97846 c 0,0 1.25502,30.37149 -2.00803,43.6747 -3.26305,13.30321 -10.99776,22.32601 -6.2751,38.40361 4.41157,15.01856 21.58634,29.61848 30.37148,38.15262 8.78514,8.53413 -27.35943,-14.05623 -32.88152,-22.08836 -5.52209,-8.03213 -15.06024,-16.31526 -15.06024,-27.61044 0,-11.29518 4.01606,-11.54618 3.01204,-23.84538 -1.00401,-12.2992 -1.75702,-12.2992 -1.75702,-12.2992 0,0 11.04417,-16.81727 12.5502,-17.82128 1.50602,-1.00402 12.04819,-16.56627 12.04819,-16.56627 z"
       id="path5596"
       inkscape:connector-curvature="0"
       sodipodi:nodetypes="cssssssccc" />
    <path
       style="fill:#8bac64;fill-opacity:1;stroke:none;stroke-width:1px;stroke-linecap:butt;stroke-linejoin:miter;stroke-opacity:1"
       d="m 327.81783,382.28952 c -4.71993,7.44202 12.56984,4.17093 15.61882,4.17093 0.48105,0 3.96024,-1.27561 3.46099,-1.77486 -0.94287,-0.94288 -3.82187,0.23468 -5.05837,-0.17749 -1.88902,-0.62967 -5.8462,-0.16663 -7.18821,-1.50864 -0.47718,-0.47718 -5.63084,-0.10875 -6.83323,-0.70994 z"
       id="path5588"
       inkscape:connector-curvature="0" />
    <path
       inkscape:connector-curvature="0"
       style="opacity:1;fill:#af483f;fill-opacity:1;stroke:none;stroke-width:1.00157475;stroke-linecap:round;stroke-linejoin:round;stroke-miterlimit:4;stroke-dasharray:none;stroke-opacity:1;paint-order:stroke fill markers"
       d="m 230.2793,427.92188 c -0.54415,0.0507 -0.41497,0.70337 -0.14063,0.99023 0.39143,0.63343 0.72282,1.32004 1.16602,1.91992 l -0.24805,0.13867 c 0.0528,0.13251 0.12108,0.25691 0.17578,0.38868 0.0443,0.0963 0.0885,0.19285 0.13281,0.28906 -4e-4,0.0365 1.7e-4,0.0728 0,0.10937 -0.005,0.0949 -0.007,0.18459 0.0215,0.27539 0.0216,0.0679 0.0331,0.13819 0.0371,0.20899 0.004,0.0616 -0.007,0.12129 0.0137,0.17969 0.0265,0.0676 0.0415,0.13622 0.0703,0.20312 0.0285,0.0845 0.0584,0.1688 0.0957,0.25 0.03,0.0885 0.0712,0.17237 0.10351,0.25977 0.0423,0.0766 0.0778,0.15768 0.11133,0.23828 0.0517,0.0897 0.0972,0.18289 0.13476,0.2793 0.0463,0.0891 0.0793,0.18374 0.11524,0.27734 0.0247,0.10443 0.0677,0.20151 0.0898,0.30664 0.0322,0.1187 0.0756,0.23341 0.10938,0.35156 0.0246,0.0869 0.0351,0.17768 0.0371,0.26758 -0.001,0.0469 -9.1e-4,0.0937 -0.004,0.14062 -2.5e-4,0.004 -0.003,0.0137 0,0.0117 0.006,-0.003 0.004,-7.8e-4 0.01,-0.004 -0.004,0.21966 0.007,0.45676 -0.01,0.625 0.0496,1.78294 -0.0995,3.59366 0.22461,5.35547 0.009,0.4339 0.52079,0.86136 0.87695,0.46875 1.47828,-1.59445 3.22214,-2.98442 5.27539,-3.75586 2.55628,-1.00942 5.31812,-1.15282 8.0293,-1.27735 1.58245,-0.0574 3.18038,0.0818 4.74414,0.375 0.53161,-0.14115 0.77622,-0.77845 1.16406,-1.14453 1.47192,-1.88548 2.89044,-3.83608 4.03321,-5.93945 0.1173,-0.28861 -0.13573,-0.6196 -0.44532,-0.57617 -0.90727,0.30519 -1.48633,1.29116 -2.50976,1.34375 -1.08471,0.0848 -2.14662,0.3856 -3.05274,1.0039 -1.15491,0.68637 -2.14115,1.72544 -3.51562,1.97071 -2.07974,0.50612 -4.1945,0.85904 -6.30078,1.22851 -2.24485,0.2219 -4.54535,0.3898 -6.81836,0.18555 -0.30014,-0.0393 -0.55976,-0.17574 -0.81641,-0.31836 -5.3e-4,-0.002 7e-5,-0.002 0,-0.004 -0.002,-0.0478 -0.003,-0.095 -0.008,-0.14257 -0.001,-0.061 -0.003,-0.11554 -0.004,-0.22852 0.007,-0.19101 9e-5,-0.37939 -0.041,-0.56641 -0.0453,-0.1807 -0.0954,-0.36122 -0.14453,-0.54101 -0.0409,-0.18942 -0.10028,-0.37347 -0.14258,-0.5625 -0.0377,-0.1663 -0.0894,-0.32759 -0.16016,-0.48242 -0.0691,-0.11778 -0.14374,-0.23293 -0.21484,-0.34961 -0.0688,-0.12062 -0.13031,-0.24457 -0.19531,-0.36719 -0.0129,-0.0281 -0.0261,-0.056 -0.0391,-0.084 -0.001,-0.10295 -0.004,-0.20575 0.002,-0.30859 l -0.0273,0.0137 c 0.0546,-0.12628 0.081,-0.26607 0.0254,-0.40429 -0.15691,-0.77312 -0.10832,-1.61511 -0.42187,-2.3379 -0.47404,-0.19191 -1.02778,-0.21886 -1.53906,-0.26171 z"
       id="path4963" />
    <path
       style="fill:#fffdfe;fill-opacity:1;stroke:none;stroke-width:1px;stroke-linecap:butt;stroke-linejoin:miter;stroke-opacity:1"
       d="m 232.06378,427.63735 c 0,0 0.44372,6.56701 1.24241,6.83324 0.79869,0.26623 10.73794,0.26623 13.66647,-1.15366 2.92853,-1.4199 4.17094,-2.57356 5.05837,-2.6623 0.88744,-0.0887 2.30733,-0.44372 2.75104,-0.88744 0.44372,-0.44371 2.39607,-0.88743 2.48482,-0.53246 0.0887,0.35498 2.6623,-5.59083 2.21858,-5.76831 -0.44372,-0.17749 -8.25313,4.17093 -15.53008,4.70339 -7.27695,0.53246 -11.89161,-0.53246 -11.89161,-0.53246 z"
       id="path4951"
       inkscape:connector-curvature="0" />
    <path
       inkscape:connector-curvature="0"
       id="path4949"
       d="m 276.3085,397.01552 c 0,0 -10.75427,5.13989 -16.07818,5.76927 -5.32389,0.62937 -12.99031,-1.57344 -13.5227,-2.83219 -0.5324,-1.25875 -1.59717,-11.64344 3.51377,-17.51761 5.11095,-5.87416 12.88384,-8.07697 16.71705,-5.13989 3.83321,2.93708 8.94415,7.3427 9.26359,12.7973 0.31943,5.45457 0.10642,6.92312 0.10642,6.92312 z"
       style="fill:#fffdfe;fill-opacity:1;stroke:none;stroke-width:1.51181102;stroke-linecap:butt;stroke-linejoin:miter;stroke-miterlimit:4;stroke-dasharray:none;stroke-opacity:1;paint-order:fill markers stroke" />
    <path
       style="fill:#fffdfe;fill-opacity:1;stroke:none;stroke-width:1px;stroke-linecap:butt;stroke-linejoin:miter;stroke-opacity:1"
       d="m 197.09892,396.66594 c 0,0 8.96307,4.34842 13.40024,4.88088 4.43716,0.53246 10.82668,-1.33115 11.2704,-2.39607 0.44372,-1.06492 1.33115,-9.85051 -2.92853,-14.82014 -4.25968,-4.96962 -10.73794,-6.83323 -13.9327,-4.34842 -3.19476,2.48481 -7.45444,6.21203 -7.72067,10.82669 -0.26623,4.61465 -0.0887,5.85706 -0.0887,5.85706 z"
       id="path4947"
       inkscape:connector-curvature="0" />
    <path
       inkscape:connector-curvature="0"
       style="opacity:1;fill:#fccdac;fill-opacity:1;stroke:none;stroke-width:1.00157475;stroke-linecap:round;stroke-linejoin:round;stroke-miterlimit:4;stroke-dasharray:none;stroke-opacity:1;paint-order:fill markers stroke"
       d="m 264.51758,460.45899 c -2.78344,0.96491 -5.52006,2.10387 -8.46094,2.53906 -4.08943,0.70056 -8.25655,0.21983 -12.34766,-0.10938 -0.93271,0.0177 -0.70153,1.22454 -0.85156,1.8418 0.0495,0.53599 -0.33393,1.29133 -0.01,1.76367 -0.36787,0.3937 -0.0168,1.16011 -0.0488,1.68555 0.22349,1.8948 1.02093,3.72927 2.43555,5.03711 0.38863,0.62544 1.10196,1.07669 1.65429,0.34179 3.65468,-2.61104 8.08149,-3.75018 12.1211,-5.60546 1.28096,-0.62788 2.71338,-1.04186 3.85742,-1.90235 0.0353,-0.0607 0.0482,-0.11216 0.0645,-0.16406 0.23436,0.0601 0.4692,0.0752 0.70898,-0.0977 1.03008,-0.4038 0.81396,-1.75026 1.04297,-2.625 0.0783,-0.80389 0.27638,-1.6123 0.23829,-2.41992 -0.11699,-0.15658 -0.18726,-0.2868 -0.4043,-0.28515 z"
       id="path5096" />
    <path
       style="fill:#000000;stroke:#000000;stroke-width:1.00157475;stroke-linecap:butt;stroke-linejoin:miter;stroke-miterlimit:4;stroke-dasharray:none;stroke-opacity:1"
       d="m 246.17397,399.94944 c 0,0 -2.21858,-8.69685 3.37225,-15.79631 5.59083,-7.09947 12.33532,-8.43062 17.2162,-6.30078 4.88089,2.12984 8.43062,7.54318 9.05182,11.62538 0.62121,4.08219 0.44376,7.87216 0.44376,7.87216 0,0 0.94388,-4.47838 0.70995,-8.13839 -0.21555,-3.37237 -1.15367,-8.51936 -6.30078,-12.15784 -5.14711,-3.63847 -9.49554,-4.96962 -15.70757,-2.0411 -6.21203,2.92853 -9.58428,11.89161 -9.76176,15.9738 -0.17749,4.0822 0.97617,8.96308 0.97617,8.96308 z"
       id="path4526"
       inkscape:connector-curvature="0"
       sodipodi:nodetypes="cssccsccccc" />
    <path
       style="fill:#000000;stroke:#000000;stroke-width:1px;stroke-linecap:butt;stroke-linejoin:miter;stroke-opacity:1"
       d="m 271.83735,378.07234 c 0,0 2.00803,0.75301 3.45131,0.502 1.44327,-0.251 2.88654,-1.12951 2.88654,-1.12951 0,0 0.37651,1.88253 -0.251,3.5768 -0.62751,1.69428 -1.88253,3.51406 -1.88253,3.51406 -0.9646,-3.24655 -2.58688,-4.84889 -4.20432,-6.46335 z"
       id="path4528"
       inkscape:connector-curvature="0"
       sodipodi:nodetypes="cccccc" />
    <path
       sodipodi:nodetypes="cssccsccccc"
       inkscape:connector-curvature="0"
       id="path4540"
       d="m 221.68789,399.32111 c 0,0 1.80488,-7.06707 -2.74341,-12.83611 -4.54829,-5.76904 -10.03511,-6.85074 -14.00584,-5.12003 -3.97073,1.73072 -6.85853,6.12961 -7.36389,9.44681 -0.50537,3.3172 -0.36101,6.39693 -0.36101,6.39693 0,0 -0.76788,-3.63914 -0.57757,-6.61327 0.17536,-2.74039 0.93854,-6.92285 5.12585,-9.87948 4.18732,-2.95663 7.72488,-4.03833 12.77853,-1.65861 5.05365,2.37973 7.79707,9.66315 7.94145,12.98035 0.14439,3.3172 -0.79414,7.28341 -0.79414,7.28341 z"
       style="fill:#000000;stroke:#000000;stroke-width:1.00157475;stroke-linecap:butt;stroke-linejoin:miter;stroke-miterlimit:4;stroke-dasharray:none;stroke-opacity:1" />
    <path
       sodipodi:nodetypes="cccccc"
       inkscape:connector-curvature="0"
       id="path4542"
       d="m 200.81005,381.54374 c 0,0 -1.63358,0.6119 -2.80773,0.40792 -1.17414,-0.20396 -2.34828,-0.91784 -2.34828,-0.91784 0,0 -0.3063,1.52975 0.2042,2.90652 0.51049,1.37677 1.53149,2.85553 1.53149,2.85553 0.78472,-2.63815 2.10449,-3.94022 3.42032,-5.25213 z"
       style="fill:#000000;stroke:#000000;stroke-width:1px;stroke-linecap:butt;stroke-linejoin:miter;stroke-opacity:1" />
    <path
       style="opacity:1;fill:#f78b91;fill-opacity:1;stroke:none;stroke-width:1.00157475;stroke-linecap:round;stroke-linejoin:round;stroke-miterlimit:4;stroke-dasharray:none;stroke-opacity:1;paint-order:stroke fill markers"
       d="m 246.61031,436.71259 c -0.75901,0.0646 -1.58218,-0.0642 -2.28913,0.21285 -0.91975,0.9489 -1.70705,2.01937 -2.33402,3.18193 -0.44971,0.0665 -0.055,-0.4643 0.025,-0.64946 0.3228,-0.70548 0.91759,-1.25658 1.21901,-1.96414 0.0216,-0.63555 -0.73827,-0.49218 -1.1365,-0.40159 -3.40705,0.49828 -6.69524,2.24642 -8.76323,5.03497 -0.57115,0.51947 0.049,1.14238 0.28298,1.66553 1.13221,2.07912 3.43292,3.59177 5.84759,3.38018 2.20646,-0.0441 4.18122,-1.33356 5.65594,-2.89271 2.08225,-2.08263 3.93191,-4.38352 5.80026,-6.65534 0.2985,-0.52108 -0.36061,-0.7808 -0.77303,-0.7609 -1.17307,-0.1239 -2.35586,-0.15587 -3.53483,-0.15132 z"
       id="path4961"
       inkscape:connector-curvature="0" />
    <path
       style="fill:#fcd1ae;fill-opacity:1;stroke:none;stroke-width:1px;stroke-linecap:butt;stroke-linejoin:miter;stroke-opacity:1"
       d="m 177.71084,582.82886 c 7.92665,0.41454 18.35654,-7.18685 22.96687,-11.79719 0.94477,-0.94476 3.07186,-1.18933 4.01607,-2.13353 2.42452,-2.42452 11.42169,-6.21285 14.55823,-7.78112 0.44722,-3.63518 -3.41081,-9.77491 -4.01607,-12.80121 -6.78283,9.30947 -19.13472,20.45977 -28.99096,26.73193 -3.22347,2.0513 -9.40117,3.44588 -8.53414,7.78112 z"
       id="path5086"
       inkscape:connector-curvature="0"
       sodipodi:nodetypes="cccccsc" />
    <path
       style="fill:#000000;stroke:#000000;stroke-width:1px;stroke-linecap:butt;stroke-linejoin:miter;stroke-opacity:1"
       d="m 209.96486,365.33388 c -2.14674,0.34421 -5.27108,1.75703 -6.4006,1.25502 -1.12952,-0.502 -1.12952,-2.38453 0.1255,-3.01204 1.25502,-0.62751 4.38735,-2.10309 9.44941,-1.60108 2.1811,0.2163 5.10882,1.97758 5.10882,2.73059 0,0.75302 -0.3765,1.00402 -1.88253,1.00402 -1.50602,0 -3.38855,-0.62751 -4.39257,-0.62751 -1.00401,0 -1.34199,0.14421 -2.00803,0.251 z"
       id="path4918"
       inkscape:connector-curvature="0"
       sodipodi:nodetypes="ssssssss" />
    <path
       inkscape:connector-curvature="0"
       id="path4920"
       d="m 260.75891,362.44733 c 2.61071,0.34367 6.42301,1.75702 7.79937,1.25502 1.37637,-0.50201 1.37637,-2.38453 -0.15292,-3.01204 -1.52929,-0.62751 -6.18302,-2.72429 -11.6226,-1.86731 -2.61556,0.41207 -6.11715,2.24381 -6.11715,2.99682 0,0.75302 0.45878,1.00402 2.29393,1.00402 1.83514,0 4.12908,-0.62751 5.35251,-0.62751 1.22343,0 1.63397,0.14399 2.44686,0.251 z"
       style="fill:#000000;stroke:#000000;stroke-width:1px;stroke-linecap:butt;stroke-linejoin:miter;stroke-opacity:1"
       sodipodi:nodetypes="ssssssss" />
    <path
       style="fill:#ff857a;fill-opacity:1;stroke:none;stroke-width:1px;stroke-linecap:butt;stroke-linejoin:miter;stroke-opacity:1"
       d="m 324.71181,374.12513 c -0.72673,-0.0734 -1.35761,0.0576 -1.95235,0.35497 -4.45325,2.22663 -6.64238,-0.77681 -5.67957,-5.59082 0.30053,-1.50267 2.81022,-2.62089 3.9047,-2.83979 -1.63114,-9.02905 11.39056,-7.07356 7.89816,-0.0887 0.6431,-0.621 1.45141,-0.5325 2.30732,-0.5325 3.4835,0 2.66755,3.28743 4.43717,4.61465 5.02414,-4.89326 11.4001,1.06947 7.54318,6.21203 4.64402,3.88995 -0.80879,9.44359 -5.23585,6.12329 -2.61516,2.0467 -5.14622,0.17928 -6.12329,-1.77487 -0.26265,-0.52529 -1.46477,-1.06592 -1.77487,-1.68612 -3.73009,2.73103 -10.73097,-2.08892 -5.3246,-4.79214 z"
       id="path5592"
       inkscape:connector-curvature="0" />
    <path
       style="fill:#ff857a;fill-opacity:1;stroke:none;stroke-width:1px;stroke-linecap:butt;stroke-linejoin:miter;stroke-opacity:1"
       d="m 316.81366,393.91489 c -0.0185,-0.34817 -0.16389,-0.78509 -0.35498,-0.97617 -4.6335,-4.63351 -0.25841,-11.61495 4.25968,-5.59083 2.81548,-7.06255 6.92198,-5.91122 6.92198,1.68612 l 2.12984,-0.88743 c 4.42246,-2.00694 5.81276,4.92518 4.7034,6.03454 -0.73924,0.73924 -1.5072,1.24169 -2.39607,1.68613 -0.8983,0.44915 -2.86275,0.0887 -3.90471,0.0887 2.26036,3.96404 -0.55837,9.85055 -4.70339,9.85055 -0.80045,0 -1.40452,0.0154 -1.86361,-0.44372 -1.06327,-1.06326 -0.53246,-4.97452 -0.53246,-6.56701 -1.31311,2.07977 -8.69685,4.28525 -8.69685,0.53246 0,-0.4012 -0.1964,-1.4708 0,-1.8636 0.69466,-1.38933 4.43716,-2.74105 4.43717,-3.54974 z"
       id="path5590"
       inkscape:connector-curvature="0" />
    <path
       style="fill:#ff857a;fill-opacity:1;stroke:none;stroke-width:1px;stroke-linecap:butt;stroke-linejoin:miter;stroke-opacity:1"
       d="m 341.92802,388.14658 c -4.60749,-1.94494 -8.42091,6.03454 -2.0411,6.03454 -0.34716,0.43415 -0.96877,2.27407 -0.53246,2.92853 0.65457,0.98186 1.42857,2.31167 2.30733,2.75105 2.91711,1.45855 4.35274,-3.02593 5.41334,-5.14712 2.02581,0.50739 4.52833,-2.83495 3.54973,-4.79214 -0.8041,-1.60819 -2.85803,-1.86361 -4.43716,-1.86361 -0.63307,0 -2.1417,1.15367 -1.50864,1.15367 4.01945,0 -1.56917,-6.97458 -2.75104,-1.06492 z"
       id="path5594"
       inkscape:connector-curvature="0"
       sodipodi:nodetypes="cccccsssc" />
    <path
       style="fill:#d39688;fill-opacity:1;stroke:none;stroke-width:1px;stroke-linecap:butt;stroke-linejoin:miter;stroke-opacity:1"
       d="m 247.98394,304.33991 c 11.84798,55.13894 48.17435,75.97947 99.17993,80.16819 -37.11649,-9.85869 -82.32813,-45.44184 -89.43404,-69.32416 -1.3189,-4.4327 -9.55659,-14.10655 -9.74589,-10.84403 z"
       id="path5602"
       inkscape:connector-curvature="0"
       sodipodi:nodetypes="ccsc" />
    <path
       style="fill:#d39688;fill-opacity:1;stroke:none;stroke-width:1px;stroke-linecap:butt;stroke-linejoin:miter;stroke-opacity:1"
       d="m 249.12149,347.7636 c -11.2276,-8.2628 -17.69215,-25.28197 -7.65563,-44.42771 -3.51311,12.70187 -4.28742,31.14811 7.65563,44.42771 z"
       id="path5604"
       inkscape:connector-curvature="0"
       sodipodi:nodetypes="ccc" />
    <path
       style="fill:#d39688;fill-opacity:1;stroke:none;stroke-width:1px;stroke-linecap:butt;stroke-linejoin:miter;stroke-opacity:1"
       d="m 230.74882,340.22087 c -4.67785,-9.22192 -6.16446,-22.966 4.34951,-35.42463 -12.9878,10.61051 -12.34239,28.68377 -4.34951,35.42463 z"
       id="path5606"
       inkscape:connector-curvature="0"
       sodipodi:nodetypes="ccc" />
    <g
       id="g5515"
       style="stroke:#000000;stroke-width:1.88976383;stroke-linecap:round;stroke-miterlimit:4;stroke-dasharray:none;stroke-opacity:1">
      <ellipse
         ry="4.348423"
         rx="4.4815378"
         cy="497.21213"
         cx="232.37439"
         id="path4570"
         style="opacity:1;fill:none;fill-opacity:1;stroke:#000000;stroke-width:1.88976383;stroke-linecap:round;stroke-linejoin:round;stroke-miterlimit:4;stroke-dasharray:none;stroke-opacity:1;paint-order:stroke fill markers" />
      <ellipse
         style="opacity:1;fill:none;fill-opacity:1;stroke:#000000;stroke-width:1.88976383;stroke-linecap:round;stroke-linejoin:round;stroke-miterlimit:4;stroke-dasharray:none;stroke-opacity:1;paint-order:stroke fill markers"
         id="ellipse4572"
         cx="229.00214"
         cy="516.29193"
         rx="4.4815378"
         ry="4.348423" />
      <path
         sodipodi:nodetypes="cscscscscscscc"
         inkscape:connector-curvature="0"
         id="path4496"
         d="m 326.80723,381.64914 c -13.89328,-1.47667 -36.91067,-9.03178 -52.96185,-23.84538 -16.05607,-14.81811 -25.86144,-38.90562 -25.86144,-53.46385 0,0 -5.58517,8.89591 -5.26305,21.71184 0.23665,9.4154 4.28582,17.02319 7.89032,23.08346 -6.36603,-3.51406 -13.471,-10.40527 -14.18327,-24.15207 -0.577,-11.13614 2.28383,-17.1528 3.9667,-20.42006 -3.07749,2.04173 -8.91171,7.8664 -10.85147,16.00595 -1.97771,8.29884 1.50602,20.04096 1.50602,20.04096 0,0 -8.73164,-6.82396 -6.14959,-18.95081 1.76703,-8.299 4.76385,-11.84265 8.31358,-15.81325 -3.99345,1.38318 -11.06239,8.50594 -12.95085,14.4112 -1.57122,4.91325 -1.63783,15.20728 -1.63783,15.20728 0,0 -5.27108,-8.40864 -0.62751,-19.32731"
         style="fill:none;stroke:#000000;stroke-width:1.88976383;stroke-linecap:round;stroke-linejoin:miter;stroke-miterlimit:4;stroke-dasharray:none;stroke-opacity:1" />
      <path
         inkscape:connector-curvature="0"
         id="path4498"
         d="m 183.3437,386.99291 c 0,0 -0.88743,-12.06909 14.90888,-30.17273 15.79631,-18.10363 18.10364,-34.78738 18.10364,-34.78738"
         style="fill:none;stroke:#000000;stroke-width:1.88976383;stroke-linecap:round;stroke-linejoin:miter;stroke-miterlimit:4;stroke-dasharray:none;stroke-opacity:1" />
      <path
         inkscape:connector-curvature="0"
         id="path4500"
         d="m 187.87651,363.20035 c 0,0 2.00803,-9.41265 8.28313,-17.82129 6.2751,-8.40863 7.90663,-16.81727 7.90663,-16.81727"
         style="fill:none;stroke:#000000;stroke-width:1.88976383;stroke-linecap:round;stroke-linejoin:miter;stroke-miterlimit:4;stroke-dasharray:none;stroke-opacity:1" />
      <path
         sodipodi:nodetypes="cc"
         inkscape:connector-curvature="0"
         id="path4502"
         d="m 280.24598,314.25457 c 4.8532,4.19765 20.91698,21.85127 25.85342,29.24196"
         style="fill:none;stroke:#000000;stroke-width:1.88976383;stroke-linecap:round;stroke-linejoin:miter;stroke-miterlimit:4;stroke-dasharray:none;stroke-opacity:1" />
      <path
         sodipodi:nodetypes="csc"
         inkscape:connector-curvature="0"
         id="path4506"
         d="m 257.78112,315.50959 c 1.10626,3.21654 4.84153,12.86769 16.44077,24.22188 9.51344,9.31246 18.07228,16.69177 27.86144,23.97089"
         style="fill:none;stroke:#000000;stroke-width:1.88976383;stroke-linecap:round;stroke-linejoin:miter;stroke-miterlimit:4;stroke-dasharray:none;stroke-opacity:1" />
      <path
         inkscape:connector-curvature="0"
         id="path4508"
         d="m 230.29619,392.81882 c 0,0 0.502,5.39659 -1.00402,8.65964 -1.50603,3.26305 -4.01607,6.0241 -3.63956,9.28715 0.37651,3.26305 2.76104,3.76506 3.51406,3.76506 0.75301,0 2.51004,-0.1255 4.14156,-0.62751"
         style="fill:none;stroke:#000000;stroke-width:1.88976383;stroke-linecap:round;stroke-linejoin:miter;stroke-miterlimit:4;stroke-dasharray:none;stroke-opacity:1" />
      <path
         inkscape:connector-curvature="0"
         id="path4510"
         d="m 237.1988,408.00457 c 0,0 2.25903,1.12951 2.00803,4.01606"
         style="fill:none;stroke:#000000;stroke-width:1.88976383;stroke-linecap:round;stroke-linejoin:miter;stroke-miterlimit:4;stroke-dasharray:none;stroke-opacity:1" />
      <path
         sodipodi:nodetypes="cssssssc"
         inkscape:connector-curvature="0"
         id="path4514"
         d="m 186.49598,373.61702 c 0,0 2.25904,4.01606 1.25502,14.55823 -1.00401,10.54217 -2.24915,13.59526 -2.51004,21.83735 -0.29424,9.29571 8.82242,21.98983 17.57551,29.36747 10.60519,8.9387 22.83614,20.58233 37.64538,22.84136 14.80923,2.25904 17.7427,0.37778 25.35141,-2.51003 9.47242,-3.59517 28.11244,-16.31527 38.1526,-24.3474 10.04016,-8.03212 22.08836,-22.08835 23.84539,-30.62249"
         style="fill:none;fill-opacity:1;stroke:#000000;stroke-width:1.88976383;stroke-linecap:round;stroke-linejoin:miter;stroke-miterlimit:4;stroke-dasharray:none;stroke-opacity:1" />
      <path
         sodipodi:nodetypes="csc"
         inkscape:connector-curvature="0"
         id="path4516"
         d="m 305.22088,318.01962 c 2.72291,1.38052 8.9293,5.79676 14.68374,13.67972 6.52681,8.94102 9.91466,16.94278 10.29116,19.07631"
         style="fill:none;stroke:#000000;stroke-width:1.88976383;stroke-linecap:round;stroke-linejoin:miter;stroke-miterlimit:4;stroke-dasharray:none;stroke-opacity:1" />
      <path
         sodipodi:nodetypes="csssssssc"
         inkscape:connector-curvature="0"
         id="path4518"
         d="m 168.22837,470.7199 c 0,0 -6.11023,-5.21757 -3.06773,-20.54666 2.68362,-13.52092 10.48127,-26.98662 11.54619,-34.63855 0.76117,-5.46938 2.00803,-19.07631 -0.50201,-34.63856 -2.51004,-15.56225 1.29808,-36.81884 7.32218,-49.36904 6.02409,-12.5502 17.4392,-24.68127 30.07525,-30.57204 11.64717,-5.42976 45.18639,-9.97416 69.68254,-3.33135 24.39634,6.61575 44.59172,20.70715 53.5626,33.98951 6.3141,9.3487 18.5743,33.72067 10.04016,53.29899"
         style="fill:none;stroke:#000000;stroke-width:1.88976383;stroke-linecap:round;stroke-linejoin:miter;stroke-miterlimit:4;stroke-dasharray:none;stroke-opacity:1" />
      <path
         inkscape:connector-curvature="0"
         id="path4530"
         d="m 246.10944,399.65868 c 0,0 5.33383,4.14157 12.61295,3.26305 7.27912,-0.87851 17.69578,-5.96134 17.69578,-5.96134"
         style="fill:none;stroke:#000000;stroke-width:1.88976383;stroke-linecap:round;stroke-linejoin:miter;stroke-miterlimit:4;stroke-dasharray:none;stroke-opacity:1" />
      <path
         inkscape:connector-curvature="0"
         id="path4532"
         d="m 277.54769,402.35698 c 0,0 1.75703,-0.87852 2.88655,-2.63555"
         style="fill:none;stroke:#000000;stroke-width:1.88976383;stroke-linecap:round;stroke-linejoin:miter;stroke-miterlimit:4;stroke-dasharray:none;stroke-opacity:1" />
      <path
         style="fill:none;stroke:#000000;stroke-width:1.88976383;stroke-linecap:round;stroke-linejoin:miter;stroke-miterlimit:4;stroke-dasharray:none;stroke-opacity:1"
         d="m 221.74039,399.08484 c 0,0 -4.33921,3.36545 -10.26097,2.65156 -5.92176,-0.71388 -14.39599,-4.84419 -14.39599,-4.84419"
         id="path4544"
         inkscape:connector-curvature="0" />
      <path
         style="fill:none;stroke:#000000;stroke-width:1.88976383;stroke-linecap:round;stroke-linejoin:miter;stroke-miterlimit:4;stroke-dasharray:none;stroke-opacity:1"
         d="m 196.16454,401.27749 c 0,0 -1.42939,-0.71389 -2.34829,-2.14166"
         id="path4546"
         inkscape:connector-curvature="0" />
      <path
         sodipodi:nodetypes="cscsssssc"
         inkscape:connector-curvature="0"
         id="path4554"
         d="m 228.90133,427.48586 c 0,0 7.73609,1.64983 14.43286,0.68395 9.2293,-1.33115 15.97194,-4.68185 15.97194,-4.68185 0,0 -0.7247,5.54185 -7.71881,13.64493 -5.47187,6.33948 -7.61995,9.90127 -11.98035,10.20548 -3.81597,0.26623 -6.00874,-2.56588 -6.83324,-4.96962 -0.8892,-2.59238 -0.60681,-3.89426 -0.59517,-6.08914 0.009,-1.7668 -0.38273,-4.26965 -1.13213,-5.4824 -0.67696,-1.09552 -1.22096,-2.32736 -2.1451,-3.31135 z"
         style="fill:none;stroke:#000000;stroke-width:1.88976383;stroke-linecap:round;stroke-linejoin:round;stroke-miterlimit:4;stroke-dasharray:none;stroke-opacity:1" />
      <path
         sodipodi:nodetypes="cscscscsc"
         inkscape:connector-curvature="0"
         id="path4556"
         d="m 232.06378,428.16981 c 0,0 0.70995,5.76832 1.15367,6.21204 0.44371,0.44371 1.68612,0.44371 1.68612,0.44371 0,0 4.03627,0.16033 7.27695,-0.53246 2.79865,-0.5983 5.41335,-0.70994 6.83324,-1.86361 1.41989,-1.15366 2.30733,-1.59738 3.19476,-1.86361 0.88743,-0.26623 1.59738,-0.0887 2.21858,-0.44371 0.6212,-0.35498 1.24241,-1.15367 1.86361,-1.15367 0.6212,0 1.15366,-0.0887 1.15366,-0.0887"
         style="fill:none;stroke:#000000;stroke-width:1.88976383;stroke-linecap:round;stroke-linejoin:miter;stroke-miterlimit:4;stroke-dasharray:none;stroke-opacity:1" />
      <path
         inkscape:connector-curvature="0"
         id="path4558"
         d="m 235.31627,450.04774 c 0,0 2.88654,1.06677 4.89457,1.06677"
         style="fill:none;stroke:#000000;stroke-width:1.88976383;stroke-linecap:round;stroke-linejoin:miter;stroke-miterlimit:4;stroke-dasharray:none;stroke-opacity:1" />
      <path
         inkscape:connector-curvature="0"
         id="path4560"
         d="m 232.80623,442.64312 c 0,0 2.57279,-4.76908 9.3499,-5.71034 6.7771,-0.94127 9.4754,0.1255 9.4754,0.1255"
         style="fill:none;stroke:#000000;stroke-width:1.88976383;stroke-linecap:round;stroke-linejoin:miter;stroke-miterlimit:4;stroke-dasharray:none;stroke-opacity:1" />
      <path
         inkscape:connector-curvature="0"
         id="path4562"
         d="m 244.35241,436.74453 c 0,0 -1.56877,1.31777 -2.44729,3.26305"
         style="fill:none;stroke:#000000;stroke-width:1.88976383;stroke-linecap:round;stroke-linejoin:miter;stroke-miterlimit:4;stroke-dasharray:none;stroke-opacity:1" />
      <path
         inkscape:connector-curvature="0"
         id="path4564"
         d="m 258.40864,420.68027 c 0,0 0.62751,3.13755 2.44728,4.70632"
         style="fill:none;stroke:#000000;stroke-width:1.88976383;stroke-linecap:round;stroke-linejoin:miter;stroke-miterlimit:4;stroke-dasharray:none;stroke-opacity:1" />
      <path
         sodipodi:nodetypes="cccsscsc"
         inkscape:connector-curvature="0"
         id="path4566"
         d="m 220.6159,510.34613 c 0,0 -0.17749,-9.05182 2.83978,-16.32877 3.01728,-7.27695 4.16465,-6.83323 7.89816,-7.72067 3.7335,-0.88743 7.28637,-1.33115 8.63905,-1.86361 1.35267,-0.53246 2.96261,-2.30733 3.14638,-3.19476 0.18377,-0.88743 1.63509,-5.3246 2.7798,-6.56701 1.14472,-1.2424 3.5166,-2.83978 8.21418,-4.52591 2.38509,-0.85609 9.11371,-3.72721 11.36009,-5.1471"
         style="fill:none;stroke:#000000;stroke-width:1.88976383;stroke-linecap:round;stroke-linejoin:miter;stroke-miterlimit:4;stroke-dasharray:none;stroke-opacity:1" />
      <path
         sodipodi:nodetypes="ccc"
         inkscape:connector-curvature="0"
         id="path4568"
         d="m 242.97768,462.77971 c 0,0 -0.81802,3.90471 -0.19729,6.47826 0.62073,2.57356 2.08318,4.08219 3.38968,5.05837"
         style="fill:none;stroke:#000000;stroke-width:1.88976383;stroke-linecap:round;stroke-linejoin:miter;stroke-miterlimit:4;stroke-dasharray:none;stroke-opacity:1" />
      <path
         sodipodi:nodetypes="ccc"
         inkscape:connector-curvature="0"
         id="path4824"
         d="m 208.78335,492.6349 c -0.17403,-5.67982 4.19181,-13.02576 10.71966,-16.60825 6.52611,-3.63955 18.9408,-5.10252 18.9408,-5.10252"
         style="fill:none;stroke:#000000;stroke-width:1.88976383;stroke-linecap:round;stroke-linejoin:miter;stroke-miterlimit:4;stroke-dasharray:none;stroke-opacity:1" />
      <path
         sodipodi:nodetypes="ccc"
         inkscape:connector-curvature="0"
         id="path4826"
         d="m 242.30472,466.4885 c 0,0 -0.35052,-0.1255 -0.9045,0.1255 -1.0991,0.52356 -2.24326,3.72435 -1.82746,6.40061"
         style="fill:none;stroke:#000000;stroke-width:1.88976383;stroke-linecap:round;stroke-linejoin:miter;stroke-miterlimit:4;stroke-dasharray:none;stroke-opacity:1" />
      <path
         sodipodi:nodetypes="ccssssc"
         inkscape:connector-curvature="0"
         id="path4828"
         d="m 265.33245,464.98248 c 0,0 0.20727,2.14614 0.0577,5.24694 0,0 10.97551,-0.84354 17.24038,-0.22686 6.68393,0.65793 13.85928,5.99702 17.19378,14.05622 3.73739,9.03295 -2.35959,18.73769 -4.26707,21.83735 -3.01205,4.89458 -19.67082,22.1868 -27.10843,28.86546 -6.1496,5.52209 -12.92671,12.92671 -33.00703,19.82932"
         style="fill:none;stroke:#000000;stroke-width:1.88976383;stroke-linecap:round;stroke-linejoin:miter;stroke-miterlimit:4;stroke-dasharray:none;stroke-opacity:1" />
      <path
         sodipodi:nodetypes="csc"
         inkscape:connector-curvature="0"
         id="path4830"
         d="m 267.31928,489.32987 c -2.63554,7.00298 -9.28715,16.18052 -17.06828,23.34337 -7.90268,7.27474 -16.56626,15.81325 -23.34337,20.08032"
         style="fill:none;stroke:#000000;stroke-width:1.88976383;stroke-linecap:round;stroke-linejoin:miter;stroke-miterlimit:4;stroke-dasharray:none;stroke-opacity:1" />
      <path
         sodipodi:nodetypes="csc"
         inkscape:connector-curvature="0"
         id="path4832"
         d="m 215.36718,547.6883 c 0,0 7.055,17.03608 5.22489,20.08032 -1.75958,2.92692 -5.0611,0.0769 -6.91932,-4.01607"
         style="fill:none;stroke:#000000;stroke-width:1.88976383;stroke-linecap:round;stroke-linejoin:miter;stroke-miterlimit:4;stroke-dasharray:none;stroke-opacity:1" />
      <path
         sodipodi:nodetypes="csssssc"
         inkscape:connector-curvature="0"
         id="path4834"
         d="m 219.56175,568.77264 c 0,0 7.96795,-1.28165 11.81151,-2.39977 3.38589,-0.98498 5.31897,-2.36931 5.5682,-3.49883 0.24922,-1.12951 -0.5609,-6.89934 -1.74496,-10.04016 -2.77964,-7.37324 -4.71421,-14.24923 -8.23091,-19.95482 -1.16328,-1.88733 -2.17834,-1.88253 -2.94451,-1.38052 -0.76616,0.50201 -3.14892,1.38053 -3.14892,1.38053"
         style="fill:none;stroke:#000000;stroke-width:1.88976383;stroke-linecap:round;stroke-linejoin:miter;stroke-miterlimit:4;stroke-dasharray:none;stroke-opacity:1" />
      <path
         sodipodi:nodetypes="ccsc"
         inkscape:connector-curvature="0"
         id="path4836"
         d="m 219.87952,561.24252 c 0,0 -9.53815,2.76104 -16.31526,8.15763 -2.00803,1.63152 -10.29117,7.65562 -14.18173,9.53815 -3.89056,1.88253 -8.15763,4.26707 -11.67169,4.26707"
         style="fill:none;stroke:#000000;stroke-width:1.88976383;stroke-linecap:round;stroke-linejoin:miter;stroke-miterlimit:4;stroke-dasharray:none;stroke-opacity:1" />
      <path
         sodipodi:nodetypes="cssssc"
         inkscape:connector-curvature="0"
         id="path4840"
         d="m 347.51885,395.68976 c 0,0 6.84026,6.101 7.80941,13.13401 1.25502,9.1075 -2.83979,26.26802 -2.83979,28.75284 0,2.48481 3.60014,9.8591 10.33729,15.80892 6.86227,6.06032 11.10814,15.05592 8.62333,26.06009 -2.48481,11.00417 -10.08629,26.9958 -22.86533,35.51516"
         style="fill:none;stroke:#000000;stroke-width:1.88976383;stroke-linecap:round;stroke-linejoin:miter;stroke-miterlimit:4;stroke-dasharray:none;stroke-opacity:1" />
      <path
         sodipodi:nodetypes="csc"
         inkscape:connector-curvature="0"
         id="path4842"
         d="m 315.76305,451.17726 c -0.62751,9.17861 -12.04819,26.75775 -14.30723,43.9257 -1.71815,13.05738 -2.76104,24.59839 4.01607,31.62651"
         style="fill:none;stroke:#000000;stroke-width:1.88976383;stroke-linecap:round;stroke-linejoin:miter;stroke-miterlimit:4;stroke-dasharray:none;stroke-opacity:1" />
      <path
         sodipodi:nodetypes="csssc"
         inkscape:connector-curvature="0"
         id="path4844"
         d="m 338.60442,414.27967 c 0,0 3.58649,8.53465 1.75702,16.06425 -1.16365,4.78927 -5.63933,15.63738 -0.3765,22.33936 6.01992,7.6661 11.49892,12.93785 11.16967,28.61446 -0.18477,8.79753 -3.76505,19.82931 -11.29517,28.36345"
         style="fill:none;stroke:#000000;stroke-width:1.88976383;stroke-linecap:round;stroke-linejoin:miter;stroke-miterlimit:4;stroke-dasharray:none;stroke-opacity:1" />
      <path
         sodipodi:nodetypes="cssc"
         inkscape:connector-curvature="0"
         id="path4846"
         d="m 218.67148,299.09667 c 0,-1.49391 2.14271,-6.8513 3.645,-6.98435 0.52834,-0.0468 2.75994,-6.97281 3.58713,-12.1198 2.25903,-14.05623 3.01205,-24.5984 2.51004,-27.86145"
         style="fill:none;stroke:#000000;stroke-width:1.88976383;stroke-linecap:round;stroke-linejoin:miter;stroke-miterlimit:4;stroke-dasharray:none;stroke-opacity:1" />
      <path
         sodipodi:nodetypes="cssc"
         inkscape:connector-curvature="0"
         id="path4848"
         d="m 334.58835,328.6873 c 0,0 2.2202,-9.24512 0.59088,-10.70171 -0.96174,-0.85979 0.85854,-5.00644 1.66816,-6.86857 2.51004,-5.7731 7.68977,-14.92583 10.92759,-18.20671"
         style="fill:none;stroke:#000000;stroke-width:1.88976383;stroke-linecap:round;stroke-linejoin:miter;stroke-miterlimit:4;stroke-dasharray:none;stroke-opacity:1" />
      <path
         sodipodi:nodetypes="csc"
         inkscape:connector-curvature="0"
         id="path4850"
         d="m 238.05577,289.23267 c 0,0 23.59439,-5.02008 43.67471,0 20.08032,5.02008 29.61847,11.04418 38.15261,17.06828"
         style="fill:none;stroke:#000000;stroke-width:1.88976383;stroke-linecap:round;stroke-linejoin:miter;stroke-miterlimit:4;stroke-dasharray:none;stroke-opacity:1" />
      <path
         sodipodi:nodetypes="cscc"
         inkscape:connector-curvature="0"
         id="path4852"
         d="m 227.40964,265.43428 c 0,0 -30.15725,-15.40758 -19.57831,-50.4518 8.18333,-27.10843 33.75478,-32.37952 40.66265,-32.37952 4.46744,0 13.91698,1.50603 18.8253,6.5261"
         style="fill:none;stroke:#000000;stroke-width:1.88976383;stroke-linecap:round;stroke-linejoin:miter;stroke-miterlimit:4;stroke-dasharray:none;stroke-opacity:1" />
      <path
         sodipodi:nodetypes="csc"
         inkscape:connector-curvature="0"
         id="path4854"
         d="m 263.30321,203.43629 c -0.75301,-18.1036 25.95181,-38.20427 54.71888,-33.13252 24.42123,4.30556 37.14859,27.32297 36.39558,42.41967"
         style="fill:none;stroke:#000000;stroke-width:1.88976383;stroke-linecap:round;stroke-linejoin:miter;stroke-miterlimit:4;stroke-dasharray:none;stroke-opacity:1" />
      <path
         sodipodi:nodetypes="csc"
         inkscape:connector-curvature="0"
         id="path4856"
         d="m 348.14257,293.29573 c 12.79254,3.26305 40.01922,-5.66113 43.6747,-40.66265 4.65962,-44.61619 -37.6506,-45.68273 -37.6506,-45.68273"
         style="fill:none;stroke:#000000;stroke-width:1.88976383;stroke-linecap:round;stroke-linejoin:miter;stroke-miterlimit:4;stroke-dasharray:none;stroke-opacity:1" />
      <path
         inkscape:connector-curvature="0"
         id="path4858"
         d="m 245.97597,243.49136 c 0,0 23.61813,-7.08257 46.64265,-2.08977 23.02452,4.99281 44.42638,21.34256 47.52207,23.74869"
         style="fill:none;stroke:#000000;stroke-width:1.88976383;stroke-linecap:round;stroke-linejoin:miter;stroke-miterlimit:4;stroke-dasharray:none;stroke-opacity:1" />
      <path
         inkscape:connector-curvature="0"
         id="path4860"
         d="m 245.32158,246.40185 c 0,0 -1.87981,-3.57769 -7.01225,-6.79352"
         style="fill:none;stroke:#000000;stroke-width:1.88976383;stroke-linecap:round;stroke-linejoin:miter;stroke-miterlimit:4;stroke-dasharray:none;stroke-opacity:1" />
      <path
         inkscape:connector-curvature="0"
         id="path4862"
         d="m 238.04762,245.18272 c 0,0 3.0336,2.6107 3.40588,3.44509"
         style="fill:none;stroke:#000000;stroke-width:1.88976383;stroke-linecap:round;stroke-linejoin:miter;stroke-miterlimit:4;stroke-dasharray:none;stroke-opacity:1" />
      <path
         inkscape:connector-curvature="0"
         id="path4864"
         d="m 341.19209,273.90472 c 0,0 5.67319,-6.72297 9.51881,-8.10961"
         style="fill:none;stroke:#000000;stroke-width:1.88976383;stroke-linecap:round;stroke-linejoin:miter;stroke-miterlimit:4;stroke-dasharray:none;stroke-opacity:1" />
      <path
         inkscape:connector-curvature="0"
         id="path4866"
         d="m 348.16328,275.80222 c 0,0 1.56654,-1.93693 3.42237,-2.75354"
         style="fill:none;stroke:#000000;stroke-width:1.88976383;stroke-linecap:round;stroke-linejoin:miter;stroke-miterlimit:4;stroke-dasharray:none;stroke-opacity:1" />
      <path
         inkscape:connector-curvature="0"
         id="path4868"
         d="m 182.98873,422.31276 c 0,0 -0.17749,11.35914 -4.79214,21.12091 -4.61465,9.76176 -1.95235,21.47588 -1.95235,21.47588"
         style="fill:none;stroke:#000000;stroke-width:1.88976383;stroke-linecap:round;stroke-linejoin:miter;stroke-miterlimit:4;stroke-dasharray:none;stroke-opacity:1" />
      <path
         sodipodi:nodetypes="csc"
         inkscape:connector-curvature="0"
         id="path4870"
         d="m 198.16767,463.60196 c 0,0 2.51004,4.7771 2.38454,9.79718 -0.1255,5.02008 -0.75301,6.22312 -0.75301,6.22312"
         style="fill:none;stroke:#000000;stroke-width:1.88976383;stroke-linecap:round;stroke-linejoin:miter;stroke-miterlimit:4;stroke-dasharray:none;stroke-opacity:1" />
      <path
         inkscape:connector-curvature="0"
         id="path4872"
         d="m 225.52711,456.82485 c 0,0 -2.51004,4.89458 -1.88253,9.53815"
         style="fill:none;stroke:#000000;stroke-width:1.88976383;stroke-linecap:round;stroke-linejoin:miter;stroke-miterlimit:4;stroke-dasharray:none;stroke-opacity:1" />
      <path
         inkscape:connector-curvature="0"
         id="path4874"
         d="m 325.42671,372.7385 c 0,0 -2.38454,3.01205 -5.39659,2.51004 -3.01205,-0.50201 -3.13755,-3.76506 -3.13755,-4.76907 0,-1.00402 1.25502,-4.14157 4.14157,-4.14157 2.88654,0 2.88654,1.88253 2.88654,1.88253 l 0.12551,2.51004 z"
         style="fill:none;stroke:#000000;stroke-width:1.88976383;stroke-linecap:round;stroke-linejoin:miter;stroke-miterlimit:4;stroke-dasharray:none;stroke-opacity:1" />
      <path
         inkscape:connector-curvature="0"
         id="path4876"
         d="m 324.23444,368.28318 c 0,0 1.38052,-1.00402 2.51004,-0.0627 1.12952,0.94126 0.69026,2.88655 0.31375,3.38855 -0.3765,0.50201 -1.44327,0.94127 -2.13353,0.50201 -0.69026,-0.43926 -1.06677,-1.44327 -0.81576,-2.51004 0.251,-1.06677 0.1255,-1.31777 0.1255,-1.31777 z"
         style="fill:none;stroke:#000000;stroke-width:1.88976383;stroke-linecap:round;stroke-linejoin:miter;stroke-miterlimit:4;stroke-dasharray:none;stroke-opacity:1" />
      <path
         inkscape:connector-curvature="0"
         id="path4878"
         d="m 321.78715,366.4634 c 0,0 -1.94528,-3.57681 0.62751,-6.0241 2.57279,-2.44728 6.08685,-0.251 6.2751,0.0628 0.18825,0.31375 2.38454,4.45532 -1.75703,7.59287"
         style="fill:none;stroke:#000000;stroke-width:1.88976383;stroke-linecap:round;stroke-linejoin:miter;stroke-miterlimit:4;stroke-dasharray:none;stroke-opacity:1" />
      <path
         inkscape:connector-curvature="0"
         id="path4880"
         d="m 328.81526,366.02414 c 0,0 4.26707,-2.38453 5.96135,1.81978 1.69427,4.20432 -0.31376,5.27109 -1.44328,6.08685 -1.12951,0.81576 -4.70632,1.44327 -6.14959,-2.00803"
         style="fill:none;stroke:#000000;stroke-width:1.88976383;stroke-linecap:round;stroke-linejoin:miter;stroke-miterlimit:4;stroke-dasharray:none;stroke-opacity:1" />
      <path
         inkscape:connector-curvature="0"
         id="path4882"
         d="m 324.04619,374.11902 c 0,0 -3.13755,4.39257 1.81977,5.64759 4.95733,1.25502 5.27109,-5.14558 5.27109,-5.14558"
         style="fill:none;stroke:#000000;stroke-width:1.88976383;stroke-linecap:round;stroke-linejoin:miter;stroke-miterlimit:4;stroke-dasharray:none;stroke-opacity:1" />
      <path
         sodipodi:nodetypes="ccccssc"
         inkscape:connector-curvature="0"
         id="path4884"
         d="m 347.01305,384.59844 c 0,0 -7.09086,0.0627 -11.04417,-0.62751 -3.95332,-0.69026 -7.65563,-2.13353 -8.28314,-1.75703 -0.62751,0.37651 -0.502,3.70231 0,4.14157 0.50201,0.43926 6.44349,1.39359 9.53816,1.25502 4.20432,-0.18826 7.71837,-1.12952 8.91064,-1.81978 1.19227,-0.69026 0.87851,-1.19227 0.87851,-1.19227 z"
         style="fill:none;stroke:#000000;stroke-width:1.88976383;stroke-linecap:round;stroke-linejoin:miter;stroke-miterlimit:4;stroke-dasharray:none;stroke-opacity:1" />
      <path
         sodipodi:nodetypes="sssss"
         inkscape:connector-curvature="0"
         id="path4886"
         d="m 322.60291,390.99904 c -0.90861,0.26781 -2.40324,1.77997 -2.00803,3.76507 0.23363,1.17348 1.88253,1.75702 3.0748,1.38052 1.19227,-0.37651 1.47461,-1.62675 1.63152,-2.76105 0.25606,-1.85094 -1.23282,-2.81648 -2.69829,-2.38454 z"
         style="fill:none;stroke:#000000;stroke-width:1.88976383;stroke-linecap:round;stroke-linejoin:miter;stroke-miterlimit:4;stroke-dasharray:none;stroke-opacity:1" />
      <path
         inkscape:connector-curvature="0"
         id="path4888"
         d="m 320.34388,393.25808 c 0,0 -5.02008,0.43926 -6.71436,2.44729 -1.69428,2.00803 -1.25502,5.52209 -0.31376,5.71034 0.94127,0.18825 4.51808,0.37651 6.0241,-0.94126 1.50602,-1.31778 2.51004,-2.76105 2.88655,-4.01607"
         style="fill:none;stroke:#000000;stroke-width:1.88976383;stroke-linecap:round;stroke-linejoin:miter;stroke-miterlimit:4;stroke-dasharray:none;stroke-opacity:1" />
      <path
         inkscape:connector-curvature="0"
         id="path4890"
         d="m 321.91265,397.3369 c 0,0 -2.76104,6.90261 -0.1255,8.47138 2.63554,1.56878 6.58885,-1.44327 6.71436,-3.13755 0.1255,-1.69428 0.62751,-5.64759 -0.37651,-6.46335 -1.00402,-0.81577 -2.82379,-1.56878 -2.82379,-1.56878"
         style="fill:none;stroke:#000000;stroke-width:1.88976383;stroke-linecap:round;stroke-linejoin:miter;stroke-miterlimit:4;stroke-dasharray:none;stroke-opacity:1" />
      <path
         inkscape:connector-curvature="0"
         id="path4892"
         d="m 328.06225,395.89362 c 0,0 3.4513,0.31376 5.52209,-1.06677 2.07078,-1.38052 0.94126,-6.14959 -1.12952,-6.58885 -2.07078,-0.43926 -4.01606,-0.37651 -5.27108,1.63153 -1.25502,2.00803 -2.07079,2.00803 -2.07079,2.00803"
         style="fill:none;stroke:#000000;stroke-width:1.88976383;stroke-linecap:round;stroke-linejoin:miter;stroke-miterlimit:4;stroke-dasharray:none;stroke-opacity:1" />
      <path
         inkscape:connector-curvature="0"
         id="path4894"
         d="m 322.22641,390.99904 c -0.50201,-5.02008 -1.00402,-3.3258 -0.50201,-5.02008 0.50201,-1.69427 2.82379,-4.01606 3.51405,-3.76506 0.69027,0.25101 2.9493,1.44328 2.38454,6.71436"
         style="fill:none;stroke:#000000;stroke-width:1.88976383;stroke-linecap:round;stroke-linejoin:miter;stroke-miterlimit:4;stroke-dasharray:none;stroke-opacity:1" />
      <path
         sodipodi:nodetypes="cscc"
         inkscape:connector-curvature="0"
         id="path4896"
         d="m 317.39457,393.19533 c -1.19098,-0.87361 -2.43594,-2.60054 -2.76104,-3.63956 -0.33728,-1.07799 -0.3765,-3.57681 0.62751,-4.20432 1.00402,-0.62751 3.82782,-1.31777 6.1496,3.32581"
         style="fill:none;stroke:#000000;stroke-width:1.88976383;stroke-linecap:round;stroke-linejoin:miter;stroke-miterlimit:4;stroke-dasharray:none;stroke-opacity:1" />
      <path
         sodipodi:nodetypes="ssss"
         inkscape:connector-curvature="0"
         id="path4898"
         d="m 337.72591,377.82133 c -0.99109,-0.32935 -1.31778,-1.75703 -0.81577,-3.0748 0.50201,-1.31777 2.33259,-0.58994 2.51004,0.43926 0.30068,1.74395 0.46733,3.35387 -1.69427,2.63554 z"
         style="fill:none;stroke:#000000;stroke-width:1.88976383;stroke-linecap:round;stroke-linejoin:miter;stroke-miterlimit:4;stroke-dasharray:none;stroke-opacity:1" />
      <path
         sodipodi:nodetypes="ccsc"
         inkscape:connector-curvature="0"
         id="path4900"
         d="m 337.28665,374.37003 c 0,0 -2.88655,-2.00803 -0.18826,-5.27109 3.98065,-3.06577 7.01164,0.41138 7.21637,1.81979 0.20463,1.40774 1.38052,4.64357 -4.64357,5.39658"
         style="fill:none;stroke:#000000;stroke-width:1.88976383;stroke-linecap:round;stroke-linejoin:miter;stroke-miterlimit:4;stroke-dasharray:none;stroke-opacity:1" />
      <path
         inkscape:connector-curvature="0"
         id="path4902"
         d="m 336.59639,374.18177 c 0,0 -4.20432,-0.87851 -5.58484,2.07079 -1.38053,2.94929 0.31375,4.14156 0.94126,4.07881 0.62751,-0.0627 3.2003,-0.502 5.33384,-2.76104"
         style="fill:none;stroke:#000000;stroke-width:1.88976383;stroke-linecap:round;stroke-linejoin:miter;stroke-miterlimit:4;stroke-dasharray:none;stroke-opacity:1" />
      <path
         sodipodi:nodetypes="cssc"
         inkscape:connector-curvature="0"
         id="path4904"
         d="m 332.20382,380.33137 c 0,0 0.81576,3.32581 2.88654,3.32581 2.07079,0 2.62196,-1.0107 3.0748,-2.07079 0.42554,-0.99616 0.31376,-2.19628 -0.1255,-3.3258"
         style="fill:none;stroke:#000000;stroke-width:1.88976383;stroke-linecap:round;stroke-linejoin:miter;stroke-miterlimit:4;stroke-dasharray:none;stroke-opacity:1" />
      <path
         sodipodi:nodetypes="cssc"
         inkscape:connector-curvature="0"
         id="path4906"
         d="m 337.97691,381.7119 c 0.56464,1.21298 2.31512,2.19123 3.63956,2.00803 1.75813,-0.24319 3.76505,-1.56878 3.51405,-4.39257 -0.19446,-2.18766 -2.69829,-3.70231 -2.69829,-3.70231"
         style="fill:none;stroke:#000000;stroke-width:1.88976383;stroke-linecap:round;stroke-linejoin:miter;stroke-miterlimit:4;stroke-dasharray:none;stroke-opacity:1" />
      <path
         inkscape:connector-curvature="0"
         id="path4908"
         d="m 340.8007,393.63459 c 0,0 -1.25502,-1.38053 -0.75301,-2.5728 0.50201,-1.19226 1.69428,-1.38052 2.38454,-0.94126 0.69026,0.43926 1.63153,1.75703 0.69026,2.76104 -0.94126,1.00402 -2.32179,0.75302 -2.32179,0.75302 z"
         style="fill:none;stroke:#000000;stroke-width:1.88976383;stroke-linecap:round;stroke-linejoin:miter;stroke-miterlimit:4;stroke-dasharray:none;stroke-opacity:1" />
      <path
         inkscape:connector-curvature="0"
         id="path4910"
         d="m 340.6752,393.69734 c 0,0 -3.0748,3.4513 0.56476,5.89859 3.63956,2.44729 5.64759,-3.0748 5.39659,-3.95331 -0.25101,-0.87852 -2.13354,-2.9493 -3.2003,-2.9493"
         style="fill:none;stroke:#000000;stroke-width:1.88976383;stroke-linecap:round;stroke-linejoin:miter;stroke-miterlimit:4;stroke-dasharray:none;stroke-opacity:1" />
      <path
         inkscape:connector-curvature="0"
         id="path4912"
         d="m 339.92219,394.5131 c 0,0 -4.70633,-0.43926 -2.88655,-4.26707 1.81978,-3.82781 5.14559,-1.56877 5.14559,-1.56877 l 0.81576,1.56877"
         style="fill:none;stroke:#000000;stroke-width:1.88976383;stroke-linecap:round;stroke-linejoin:miter;stroke-miterlimit:4;stroke-dasharray:none;stroke-opacity:1" />
      <path
         inkscape:connector-curvature="0"
         id="path4914"
         d="m 343.43625,390.87354 c 0,0 3.01204,-4.58082 5.89859,-2.51004 2.88655,2.07078 0.87851,5.27109 0.43926,5.77309 -0.43926,0.50201 -2.25904,1.31778 -3.82781,0.50201"
         style="fill:none;stroke:#000000;stroke-width:1.88976383;stroke-linecap:round;stroke-linejoin:miter;stroke-miterlimit:4;stroke-dasharray:none;stroke-opacity:1" />
      <path
         inkscape:connector-curvature="0"
         id="path4916"
         d="m 346.13454,388.238 c 0,0 0.56476,-1.38052 -0.50201,-2.25904 -1.06677,-0.87851 -4.51807,0.18826 -3.76506,2.19629"
         style="fill:none;stroke:#000000;stroke-width:1.88976383;stroke-linecap:round;stroke-linejoin:miter;stroke-miterlimit:4;stroke-dasharray:none;stroke-opacity:1" />
      <path
         sodipodi:nodetypes="cc"
         inkscape:connector-curvature="0"
         id="path4922"
         d="m 265.25963,460.26908 c -0.29972,1.27976 -0.37884,3.99415 -0.84243,5.13297"
         style="fill:none;stroke:#000000;stroke-width:1.88976383;stroke-linecap:round;stroke-linejoin:miter;stroke-miterlimit:4;stroke-dasharray:none;stroke-opacity:1" />
      <path
         inkscape:connector-curvature="0"
         id="path4926"
         d="m 285.86128,448.77118 c 0.008,0.25778 0.0171,0.61037 -0.18826,0.81577 -2.84808,2.84808 -3.26305,7.32501 -3.26305,11.16967"
         style="fill:none;stroke:#000000;stroke-width:1.88976383;stroke-linecap:round;stroke-linejoin:miter;stroke-miterlimit:4;stroke-dasharray:none;stroke-opacity:1" />
      <path
         sodipodi:nodetypes="cc"
         inkscape:connector-curvature="0"
         id="path5088"
         d="m 294.42771,507.65316 c 0,0 -3.26305,39.40763 2.00803,53.71486"
         style="fill:none;stroke:#000000;stroke-width:1.88976383;stroke-linecap:round;stroke-linejoin:miter;stroke-miterlimit:4;stroke-dasharray:none;stroke-opacity:1" />
    </g>
    <g
       id="g5425"
       transform="translate(0,-0.87851406)">
      <ellipse
         transform="scale(-1,1)"
         style="opacity:1;fill:#333333;fill-opacity:1;stroke:none;stroke-width:1.51181102;stroke-linecap:round;stroke-linejoin:round;stroke-miterlimit:4;stroke-dasharray:none;stroke-opacity:1;paint-order:fill markers stroke"
         id="ellipse4548"
         cx="-211.85664"
         cy="391.70865"
         rx="8.806057"
         ry="9.9688549" />
      <path
         inkscape:connector-curvature="0"
         id="path5416"
         d="m 204.19838,396.48845 c -1.7561,-3.12948 3.44229,-3.58555 5.41334,-2.92853 5.41404,1.80468 7.06241,-6.62991 10.38297,-4.96963 0.75822,0.37911 0.17749,4.26886 0.17749,5.05837 0,1.23033 -0.9327,2.46398 -1.59738,3.46099 -0.44491,0.66737 -0.93263,2.15244 -1.59738,2.48481 -3.24225,1.62113 -9.90514,2.73053 -11.8916,-1.2424 -0.36973,-0.73946 -0.88744,-0.78725 -0.88744,-1.86361 z"
         style="fill:#999999;stroke:none;stroke-width:1px;stroke-linecap:butt;stroke-linejoin:miter;stroke-opacity:1" />
      <ellipse
         transform="scale(-1,1)"
         ry="3.6968892"
         rx="2.9864016"
         cy="391.70865"
         cx="-211.75453"
         id="ellipse4550"
         style="opacity:1;fill:#000000;fill-opacity:1;stroke:#000000;stroke-width:1.00157475;stroke-linecap:round;stroke-linejoin:round;stroke-miterlimit:4;stroke-dasharray:none;stroke-opacity:1;paint-order:stroke fill markers" />
      <ellipse
         transform="scale(-1,1)"
         style="opacity:1;fill:#ffffff;fill-opacity:1;stroke:none;stroke-width:1.00157475;stroke-linecap:round;stroke-linejoin:round;stroke-miterlimit:4;stroke-dasharray:none;stroke-opacity:1;paint-order:stroke fill markers"
         id="ellipse4552"
         cx="-206.88876"
         cy="387.93134"
         rx="2.6801038"
         ry="3.3399479" />
      <ellipse
         ry="9.9688549"
         rx="8.806057"
         cy="391.70865"
         cx="-211.85664"
         id="ellipse5418"
         style="opacity:1;fill:none;fill-opacity:1;stroke:#000000;stroke-width:1.51181102;stroke-linecap:round;stroke-linejoin:round;stroke-miterlimit:4;stroke-dasharray:none;stroke-opacity:1;paint-order:fill markers stroke"
         transform="scale(-1,1)" />
    </g>
    <g
       id="g5437"
       transform="matrix(1.2111466,0,0,1.2091998,4.3380283,-83.764596)"
       style="stroke-width:0.82632828">
      <ellipse
         ry="9.9688549"
         rx="8.806057"
         cy="391.70865"
         cx="-211.85664"
         id="ellipse5427"
         style="opacity:1;fill:#333333;fill-opacity:1;stroke:none;stroke-width:1.2492522;stroke-linecap:round;stroke-linejoin:round;stroke-miterlimit:4;stroke-dasharray:none;stroke-opacity:1;paint-order:fill markers stroke"
         transform="scale(-1,1)" />
      <path
         style="fill:#999999;stroke:none;stroke-width:0.82632828px;stroke-linecap:butt;stroke-linejoin:miter;stroke-opacity:1"
         d="m 204.19838,396.48845 c -1.7561,-3.12948 3.44229,-3.58555 5.41334,-2.92853 5.41404,1.80468 7.06241,-6.62991 10.38297,-4.96963 0.75822,0.37911 0.17749,4.26886 0.17749,5.05837 0,1.23033 -0.9327,2.46398 -1.59738,3.46099 -0.44491,0.66737 -0.93263,2.15244 -1.59738,2.48481 -3.24225,1.62113 -9.90514,2.73053 -11.8916,-1.2424 -0.36973,-0.73946 -0.88744,-0.78725 -0.88744,-1.86361 z"
         id="path5429"
         inkscape:connector-curvature="0" />
      <ellipse
         style="opacity:1;fill:#000000;fill-opacity:1;stroke:#000000;stroke-width:0.82762957;stroke-linecap:round;stroke-linejoin:round;stroke-miterlimit:4;stroke-dasharray:none;stroke-opacity:1;paint-order:stroke fill markers"
         id="ellipse5431"
         cx="-211.75453"
         cy="391.70865"
         rx="2.9864016"
         ry="3.6968892"
         transform="scale(-1,1)" />
      <ellipse
         ry="3.3399479"
         rx="2.6801038"
         cy="387.93134"
         cx="-206.88876"
         id="ellipse5433"
         style="opacity:1;fill:#ffffff;fill-opacity:1;stroke:none;stroke-width:0.82762957;stroke-linecap:round;stroke-linejoin:round;stroke-miterlimit:4;stroke-dasharray:none;stroke-opacity:1;paint-order:stroke fill markers"
         transform="scale(-1,1)" />
      <ellipse
         transform="scale(-1,1)"
         style="opacity:1;fill:none;fill-opacity:1;stroke:#000000;stroke-width:1.2492522;stroke-linecap:round;stroke-linejoin:round;stroke-miterlimit:4;stroke-dasharray:none;stroke-opacity:1;paint-order:fill markers stroke"
         id="ellipse5435"
         cx="-211.85664"
         cy="391.70865"
         rx="8.806057"
         ry="9.9688549" />
    </g>
    <g
       id="g5761"
       transform="translate(-2.484813,2.484813)">
      <path
         d="m 165.20508,472.03906 c -15.13209,0.004 -29.88801,3.00936 -38.82617,6.85938 -15.03919,6.47796 -37.084099,12.53049 -61.412113,44.57226 -15.004679,19.76227 -15.623595,46.26903 -3.582031,63.16016 8.682979,12.17993 23.524546,21.25535 38.982424,22.04102 20.93627,1.06411 46.06298,-4.32381 73.09179,-21.21094 32.40621,-20.24682 41.67011,-33.22816 47.93555,-50.23438 1.34145,-3.64109 3.36722,-11.74728 2.14063,-21.64844 -1.22659,-9.90115 -5.79903,-21.55854 -17.55078,-31.77539 -10.11996,-8.79819 -25.64733,-11.76777 -40.7793,-11.76367 z"
         id="path4524"
         style="fill:#fca66b;fill-opacity:1;stroke:none;stroke-width:1.88976383;stroke-linecap:butt;stroke-linejoin:miter;stroke-miterlimit:4;stroke-dasharray:none;stroke-opacity:1;paint-order:fill markers stroke"
         inkscape:original="M 165.20508 473.81445 C 150.31201 473.81849 135.66636 476.83085 127.08008 480.5293 C 111.83188 487.09729 90.465367 492.82386 66.380859 524.54492 C 51.826954 543.71348 51.320431 569.45462 62.830078 585.59961 C 71.196218 597.3351 85.641672 606.14543 100.45703 606.89844 C 121.01894 607.94353 145.76358 602.67051 172.51758 585.95508 C 204.76842 565.80533 213.55344 553.37423 219.72852 536.61328 C 222.21333 529.86879 227.66474 505.00329 204.82031 485.14258 C 195.23973 476.81332 180.09815 473.81041 165.20508 473.81445 z "
         inkscape:radius="1.7748696"
         sodipodi:type="inkscape:offset" />
      <path
         d="m 162.29297,469.33789 c -14.81444,0.004 -29.09431,2.87127 -38.13086,6.76367 -14.11759,6.081 -36.145029,12.31973 -59.771485,43.4375 -14.979927,19.72967 -15.725043,46.14712 -3.472656,63.33399 8.744522,12.26625 23.493785,21.31857 39.167971,22.11523 20.55634,1.0448 45.13173,-4.27213 71.38672,-20.67578 31.24229,-19.51962 40.76635,-32.69475 46.88867,-49.3125 1.41904,-3.85168 3.41307,-11.89102 2.17773,-21.85938 -1.23534,-9.96835 -5.91489,-21.77511 -17.61523,-31.94726 -10.4224,-9.06113 -25.8166,-11.85949 -40.63086,-11.85547 z"
         id="path5642"
         style="fill:#fdc6a2;fill-opacity:1;stroke:none;stroke-width:1.88976383;stroke-linecap:butt;stroke-linejoin:miter;stroke-miterlimit:4;stroke-dasharray:none;stroke-opacity:1;paint-order:fill markers stroke"
         inkscape:original="M 162.29492 473.44531 C 148.03361 473.44918 134.00916 476.33344 125.78711 479.875 C 111.18573 486.16438 90.724961 491.64798 67.662109 522.02344 C 53.725575 540.37888 53.24226 565.02815 64.263672 580.48828 C 72.274924 591.72595 86.108024 600.1637 100.29492 600.88477 C 119.9846 601.88552 143.67776 596.83449 169.29688 580.82812 C 200.17965 561.53312 208.59273 549.63003 214.50586 533.58008 C 216.88527 527.12168 222.1039 503.3112 200.22852 484.29297 C 191.05434 476.31703 176.55623 473.44144 162.29492 473.44531 z "
         inkscape:radius="4.1078353"
         sodipodi:type="inkscape:offset" />
      <path
         style="fill:#fbc941;fill-opacity:1;stroke:none;stroke-width:1.88976383;stroke-linecap:butt;stroke-linejoin:miter;stroke-miterlimit:4;stroke-dasharray:none;stroke-opacity:1;paint-order:fill markers stroke"
         d="m 64.26331,580.48919 c -11.021412,-15.46013 -10.537379,-40.11003 3.399155,-58.46547 23.062852,-30.37546 43.524165,-35.86014 58.125545,-42.14952 16.44411,-7.08311 56.09312,-11.53296 74.44147,4.41891 21.87538,19.01823 16.65587,42.82934 14.27646,49.28774 -5.91313,16.04995 -14.32598,27.95324 -45.20875,47.24825 -25.61911,16.00637 -49.31316,21.05576 -69.00284,20.05501 -14.186898,-0.72107 -28.019788,-9.15725 -36.03104,-20.39492 z"
         id="path4928"
         inkscape:connector-curvature="0"
         sodipodi:nodetypes="ssssssss" />
      <path
         sodipodi:nodetypes="ccccccccccccccccccccccccccccccccccccccccccccccccccccccccccccccc"
         inkscape:connector-curvature="0"
         id="path5620"
         d="m 144.35313,482.97942 c -3.82341,16.58884 -11.91517,24.23451 -22.70122,9.23149 -11.77235,7.25109 -21.867052,16.10186 -32.645784,8.40445 -19.698074,17.20338 -30.327869,19.86187 -17.039016,76.8154 6.472602,19.6204 29.62725,34.23102 41.09511,10.99242 12.35258,31.26926 40.63411,-13.48453 60.05741,-18.17787 16.29489,-16.56099 39.94743,-47.93536 29.0079,-70.37243 -13.75171,7.94868 -17.68333,5.00653 -23.88547,-8.70288 -12.62262,6.06335 -25.7206,19.60784 -19.48323,-5.04004 -4.77722,-0.66609 -11.26128,2.14386 -14.4057,-3.15054 z m 47.35937,67.92187 c -1.75761,0.44889 1.52656,0.79499 0,0 z m -65.94922,54.4336 0.10252,0.14681 z M 63.015237,551.91106 c -1.25252,-0.68176 0.28654,1.64346 0,0 z m 33.499998,-48.41016 -0.08197,0.7801 z m 98.433595,0.70899 c 0.60194,2.40043 -2.45033,-1.15352 0,0 z m -101.265626,3.42969 c 14.085676,17.05827 -21.136115,31.24028 -3.405102,5.69226 z m -6.296875,21.08007 0.164372,-0.26263 z M 194.57188,508.35051 c 8.29703,16.11114 -28.28857,29.15843 -7.44218,8.25062 l 3.84064,-4.01892 z m -9.63086,19.83203 0.10756,-0.31667 z m -66.9668,-18.16211 c 3.84711,6.36178 -8.82448,8.58638 0,0 z m 50.64453,0.47071 c 2.42583,5.47772 -9.56825,10.76449 -3.13052,3.33794 z M 119.47652,526.749 c 24.39354,6.55776 -9.37509,12.57623 0,0 z m 24.97552,-22.31935 c 12.38936,21.77425 -27.96492,8.05767 0,0 z m 20.51827,39.21578 c 0.136,16.28436 -19.58417,21.56454 -2.87366,4.07669 0.95789,-1.3589 1.91578,-2.71779 2.87366,-4.07669 z m -69.609372,0.27735 c 5.864502,16.5599 -49.212747,16.99179 0,0 z m 40.935552,4.76172 c 1.66944,4.11617 -3.74503,1.04765 0,0 z m -14.36136,-6.57799 c 32.82541,1.69762 -6.63529,21.76196 0,0 z m -12.84177,14.22642 c 12.96565,13.0592 -49.373452,21.43219 0,0 z M 141.4,557.06145 c 0.927,18.56063 -20.37685,6.34243 0,0 z m -74.61914,13.81055 -0.133026,0.1225 z m 105.66992,0.70312 0.0285,0.12574 z"
         style="opacity:1;fill:#f6b002;fill-opacity:1;stroke:none;stroke-width:1.88976383;stroke-linecap:round;stroke-linejoin:round;stroke-miterlimit:4;stroke-dasharray:none;stroke-opacity:1;paint-order:fill markers stroke" />
      <path
         inkscape:connector-curvature="0"
         id="path5622"
         d="m 102.46508,505.33957 c -6.075658,8.5416 -2.05963,21.60143 -11.059002,28.46765 -3.488607,4.83187 -10.345956,0.0223 -5.15224,-4.22061 5.942837,-9.70851 13.437334,-18.40669 21.929882,-25.95246 7.80639,-8.36492 14.01583,-19.97808 26.03455,-22.74851 8.81101,3.58063 0.52094,14.63837 -4.29183,18.56244 -1.25273,2.53963 -11.87206,7.77141 -6.43826,3.1253 4.33452,-5.24589 15.88554,-2.61801 8.44667,4.01557 -5.42383,6.625 -9.84266,13.99144 -13.19139,21.86077 -3.62426,6.96098 -9.49288,14.19043 -17.64872,15.27815 3.55659,-5.06419 9.63965,-8.28481 11.87919,-14.39169 3.18939,-7.50839 9.65448,-13.81825 17.23135,-16.7408 10.85073,0.17043 0.55613,14.45526 -6.36571,10.90555 -3.83328,-3.90408 5.13982,-9.99153 7.95843,-13.5192 5.39417,-5.10683 12.50258,-12.39966 20.64577,-9.20987 5.70449,5.13365 5.38017,15.64706 -0.74407,20.49133 -1.41744,2.82294 -9.85046,4.80546 -5.69784,0.0193 5.56901,-6.61902 12.05867,-14.33443 21.2534,-15.06493 8.64239,0.83677 3.35287,10.68914 8.94507,13.85999 5.98096,7.80209 4.52509,18.84184 0.2628,27.04185 -2.25491,3.77301 -8.06149,2.96115 -3.51293,-1.21948 5.02861,-8.76935 8.21496,-19.46135 17.1075,-25.24649 3.24486,-1.83892 7.70459,0.3618 2.36533,1.82796 -8.34396,4.93409 -15.54224,13.44994 -25.79803,13.93968 -7.61346,-3.86976 3.29699,-13.22479 7.88691,-15.64853 5.26469,-4.0216 13.9919,-1.90552 17.67136,-0.0215 0.63748,-3.54436 4.1044,-12.61578 6.6967,-10.09618 -0.56183,8.34177 -3.98695,16.3134 -10.02771,22.15028 -3.24072,5.54503 -15.80403,10.80487 -14.8929,0.15809 2.27186,-7.64218 8.17403,-13.88739 14.52415,-18.48046 5.6523,-3.83324 13.57365,-5.4887 19.64663,-1.62695 3.91837,9.51281 -2.67009,18.92108 -8.27815,26.14881 -6.56505,5.54321 -6.92827,16.84393 -15.93215,19.65489 -9.11272,1.17201 -5.24266,-11.08003 0.38098,-13.08737 2.7261,-4.17662 15.50459,-5.89777 11.31729,1.66787 -7.74008,7.81194 -16.99004,15.41333 -28.09865,17.44898 -6.70611,1.37193 -13.69918,-3.05001 -15.2314,-9.78091 -2.54312,-10.26326 -1.07169,-22.98662 7.65226,-29.99225 3.91903,-3.56762 12.34793,-5.08263 13.94945,1.62338 0.97593,8.12421 -5.7126,14.2835 -10.61194,19.88071 -5.32725,5.19246 -10.99169,10.09012 -16.82605,14.65123 -7.55175,6.29934 -19.46326,-0.0378 -15.99347,-10.06248 1.89099,-14.71258 15.003,-26.38411 29.55021,-27.77098 9.06367,3.97999 9.84509,16.03061 6.43642,24.12125 -2.62498,8.47753 -11.6711,11.41183 -18.02402,16.40642 -7.01371,3.34217 -18.10937,1.58356 -20.36505,-6.89694 -0.3685,-9.59136 9.7781,-14.28804 17.34146,-17.30953 9.01693,-3.60972 21.00826,-4.43344 28.00758,3.55726 6.06853,6.76495 2.23034,17.6258 -5.13454,21.72078 -9.8246,6.7429 -22.4306,8.64265 -34.07041,7.10967 -12.42029,-2.95077 -16.79055,-21.48734 -6.65954,-29.41354 6.17637,-3.71683 13.67916,-8.2555 21.09585,-5.4455 8.58264,2.69882 15.50206,13.72635 9.95781,22.00636 -5.12255,5.01338 -12.2326,7.65795 -18.64509,10.66041 -11.68283,4.09949 -27.45406,1.74579 -33.69749,-10.07072 -4.6722,-7.86543 -4.49299,-18.9818 2.73029,-25.31696 9.77439,-10.17575 28.68205,-11.00153 37.50497,0.86142 7.40104,9.12531 6.30384,25.59885 -5.28028,30.7934 -10.87235,5.63092 -24.65025,10.75001 -36.27669,4.25096 -9.301424,-5.70963 -9.959017,-20.19664 -2.02019,-27.37121 5.78879,-6.20476 16.33808,-9.88644 23.80448,-4.53727 8.48856,7.61053 5.76728,23.37257 -4.62424,27.9395 -8.79187,6.241 -21.33106,11.37366 -31.433948,5.10496 -8.128473,-5.48715 -11.276277,-17.90505 -4.801114,-25.83892 4.857893,-6.95099 13.342689,-9.67865 20.523652,-13.46476 8.42158,-2.02101 15.04137,6.55784 15.82571,14.13515 1.44433,11.20047 -8.8379,19.29236 -17.98876,23.35557 -12.555009,5.88895 -29.88524,4.01793 -38.175507,-7.97404 -4.478075,-6.13445 -4.171731,-14.84144 0.508615,-20.78305 4.663276,-6.85497 12.348862,-11.56076 20.569909,-12.61814 7.277705,-5.21079 18.935723,-0.50983 19.498173,8.7481 1.13684,9.03926 -7.850739,13.15126 -15.143448,14.81993 -10.408633,3.66393 -20.659734,-5.76146 -23.103294,-15.41383 -2.485506,-7.59914 0.584912,-15.72438 6.210448,-21.05342 12.197673,-13.33532 30.352004,-20.07624 48.122484,-21.01871 12.0083,0.85318 16.48966,18.78216 7.2791,25.9424 -6.45998,6.47599 -16.01262,12.37546 -25.38451,9.04916 -8.375596,-3.49737 -7.98862,-14.19156 -4.44118,-21.06699 6.70086,-13.78603 21.61718,-20.04682 34.72586,-26.19717 8.44911,-3.36447 17.45433,-5.64413 26.52919,-6.3332 7.50292,-0.5975 15.50018,3.94264 16.91959,11.7285 2.17945,8.18835 -2.17725,16.81152 -9.22015,21.12274 -8.57746,5.95261 -19.0624,8.52664 -29.23892,10.01057 -8.76934,0.15725 -18.92738,-6.856 -17.75197,-16.44782 2.1912,-8.78 11.82771,-11.59409 19.14039,-14.81583 7.09739,-2.58454 16.72477,-4.9988 22.52713,1.44013 4.93859,6.31732 -0.45227,14.46291 -5.96071,18.31806 -6.09103,4.84209 -17.08053,7.00617 -22.15755,-0.3627 -3.40328,-6.99115 2.86573,-14.34919 9.00661,-17.27682 12.82789,-5.38045 27.52231,-8.31024 41.24591,-4.79479 9.47726,1.91832 16.47994,10.45832 17.65165,19.86724 2.94719,9.8419 -4.11204,19.63047 -12.66965,23.89547 -7.395,4.10536 -15.75872,6.01492 -23.72542,8.57849 -8.08212,1.47808 -17.78275,-5.56292 -15.68303,-14.33899 2.28114,-8.53223 11.54861,-11.48788 17.87135,-16.38577 6.17365,-3.93891 14.89046,-7.86701 21.57858,-2.82354 12.97636,10.20575 12.92715,33.4452 -1.65252,42.16366 -6.10033,2.68785 -10.30148,8.20238 -16.67085,10.3908 -5.46439,2.34486 -14.38703,3.31443 -16.94611,-3.44702 -2.88534,-9.32974 6.65515,-15.78298 14.10574,-18.74982 7.54286,-4.52704 18.45484,0.47411 16.53982,10.02311 0.13187,8.51975 -2.51951,17.15274 -8.75606,23.20112 -8.51758,8.96986 -20.49519,13.24776 -31.91523,17.11532 -10.10309,2.41739 -17.8855,-12.92474 -9.59909,-19.45116 6.59284,-3.10267 15.96116,-8.1602 22.17334,-1.71676 7.32906,6.8148 0.11215,17.09682 -7.66845,19.47452 -12.76555,7.64275 -29.19237,13.75755 -43.58915,6.91469 -7.130741,-3.4497 -9.764587,-12.83153 -5.37125,-19.4019 4.12153,-7.55195 12.7877,-10.40607 20.4412,-12.77866 8.75578,-2.26005 15.11693,9.18294 9.08293,15.64652 -6.20237,5.94311 -14.9297,8.28881 -22.58518,11.85266 -12.908346,4.87465 -29.757319,5.73907 -40.111091,-4.8815 -5.129568,-5.89313 -6.680674,-14.15036 -7.022699,-21.75501 -0.302974,-7.11113 3.768765,-13.96597 10.3236,-16.86649 4.495913,-2.53396 12.537634,-6.40188 16.342793,-3.17007 -2.608456,6.51113 -11.179684,6.96108 -16.985927,9.20908 -9.451536,1.93501 5.631264,-6.94268 5.887162,0.4742 3.128309,7.59696 -2.088444,17.31788 4.918779,23.49651 10.029959,9.11743 24.818193,7.72972 37.003743,4.69204 5.44994,-0.51799 -3.08215,0.44607 -0.36237,-3.6935 1.25886,-6.78669 -9.86612,-5.32909 -9.77411,-5.89375 4.05509,-4.78347 9.54488,0.91719 6.09843,5.45316 0.5872,8.65064 10.71973,12.04744 18.14685,11.09595 5.14555,0.44213 10.03202,-2.16652 15.07409,-2.1946 -7.50817,4.36933 2.24101,-12.61714 -7.02066,-10.61548 -4.96259,-3.10077 7.42475,-7.00126 7.78903,-0.83722 3.48512,6.43804 10.92905,4.92422 16.41137,2.42141 5.37415,-2.2833 0.88205,0.97212 -1.64115,1.35975 3.59492,-4.95804 6.35227,-10.47918 7.69703,-16.51595 2.60037,-7.06716 -1.98082,-15.86477 -10.1265,-14.87185 3.2878,-4.48732 13.75327,-2.64686 9.14863,3.80705 0.77659,4.95223 14.53138,0.83215 5.8975,4.71931 5.35495,-2.74507 10.88832,-11.73711 9.97868,-19.28674 -0.11539,-9.07602 -5.83312,-19.5676 -15.63201,-20.56459 -2.3545,-1.35148 3.54064,-2.68835 -0.81181,-0.34533 -7.07941,5.23361 -4.05261,17.92022 5.41811,17.46425 5.47385,0.41516 11.73912,-3.66396 16.40092,-2.75943 -2.52345,2.70903 -7.11156,2.834 -3.06559,-1.42815 5.046,-14.2217 -6.46622,-32.85549 -22.33181,-31.50105 -6.02842,-0.13347 -16.95881,2.99652 -19.91231,0.81365 5.38466,-3.83492 1.03585,6.00304 6.29312,6.85739 5.45505,1.62314 3.20054,8.41974 -1.45397,6.43176 2.40726,-7.19948 -3.88087,-12.2934 -10.87769,-11.05639 -2.38229,0.69832 -9.66879,-0.86388 -3.5143,-1.33104 1.70109,5.3025 -1.6193,15.2365 7.92119,14.44771 5.26991,0.92313 16.87675,-1.42627 18.84079,-0.12029 -4.08315,1.13326 2.75721,-6.59513 0.79744,-9.82554 -0.45644,-8.85764 -10.45042,-12.24997 -17.96156,-12.56248 -8.12781,-0.70837 -15.36224,3.35941 -22.8299,5.74992 -4.08553,1.03876 5.13994,-3.66552 -0.60736,-0.3427 -6.52844,4.70869 -10.12913,13.23284 -9.53442,21.1953 -0.68911,6.71506 8.38769,8.37542 10.74719,9.31237 -2.7717,3.82103 -10.70727,2.22743 -5.44261,-2.44018 6.12183,-7.97866 -4.21571,-16.89436 -12.43052,-14.44396 -7.771161,-0.0677 -17.477394,0.82741 -21.144172,8.90743 -5.81006,10.44926 -1.41199,26.55748 10.874145,29.83325 8.613047,0.84995 -7.906591,8.40538 -4.47735,0.55722 1.089731,-8.84085 -11.538416,-6.93424 -17.04325,-5.92195 1.360912,-2.54917 8.913609,-5.24481 4.277825,-0.0986 -4.768859,14.02094 11.091525,29.17359 24.955422,24.50085 3.10454,-1.13055 8.90861,1.25791 2.80426,2.82903 -2.34592,1.55748 -5.72323,3.11639 -2.67914,-0.67552 3.68632,-6.02106 6.68872,-15.06275 -0.26541,-20.01759 -2.06286,-3.88277 -13.599801,-1.26917 -6.029446,-4.2764 4.036216,-1.54992 -2.536351,6.25554 -0.362555,9.01585 0.5214,8.78397 9.174401,18.27852 18.451561,14.99869 8.07831,-0.80247 -5.02763,6.17667 -1.15722,0.78307 7.35638,-4.98745 2.27411,-13.38808 -3.37911,-17.25279 -5.0608,-2.2797 0.52374,-9.545 2.00133,-4.40491 -4.47916,8.58567 3.13778,18.45186 11.63931,20.50413 5.00881,2.76508 10.84132,-1.88276 15.00795,-0.70068 -2.64539,3.76684 -8.76894,2.47455 -3.84271,-1.96326 3.61422,-5.17287 0.3472,-12.10727 -3.068,-16.55519 -4.5225,-5.23063 -11.13527,-9.44531 -18.13714,-9.61237 3.36487,-4.46747 5.81388,1.45458 3.75531,4.91948 -2.68419,7.95521 1.53639,15.59402 8.18364,19.84475 6.27971,4.17994 13.84273,1.55467 20.74077,2.29454 1.17075,2.9409 -7.4014,4.55456 -2.79393,-0.53516 5.71446,-7.10044 -2.66848,-13.69413 -9.57853,-14.20509 -3.26696,-0.55158 -7.02507,-2.06929 -1.81917,-3.52173 4.71512,-0.70884 1.32127,8.60485 5.65038,11.08336 5.30649,7.53866 15.97823,11.57781 24.64699,7.658 5.05993,0.86065 -9.66985,5.67889 -2.74864,0.52886 5.4292,-7.72655 -4.00581,-15.6207 -11.36709,-16.44677 -2.68874,-0.44899 -14.22919,-0.26996 -6.2953,-2.86535 1.53434,3.96921 -1.67476,14.14693 6.57899,11.31171 7.40266,0.51373 -3.37216,7.44349 -0.61084,1.62216 5.17355,-6.21989 6.30211,-14.46979 1.18892,-21.10099 -2.69851,-1.97044 -1.14434,-7.76519 0.16511,-5.30462 -7.60497,4.71817 -3.92941,14.7673 -3.41392,21.91965 1.03802,4.51862 -9.95691,9.91802 -2.62879,5.01728 10.76692,-7.92909 11.93238,-23.40323 22.74485,-31.23774 0.11367,4.7872 -2.47149,11.30504 -1.10294,16.93672 0.10948,6.64696 5.56092,14.37124 12.93056,12.0782 2.9557,-1.05385 5.97486,-1.09422 1.49164,1.09285 -3.18729,2.90645 -7.08665,1.71689 -2.21326,-1.21417 4.9355,-4.20606 10.88724,-10.30776 17.50208,-10.05562 -3.54032,5.03137 -9.28765,9.2796 -15.48501,10.36388 -5.90275,-1.93789 4.46873,-8.13346 6.1754,-10.76257 5.09099,-5.13165 8.31009,-13.54662 4.92127,-20.41177 -3.84265,-3.20168 -1.5667,-7.97809 3.15047,-6.32537 -3.02631,6.33096 -5.13012,14.21715 -11.14415,18.58461 -3.12731,4.51361 -10.79264,1.31761 -5.12617,-3.41884 3.21494,-6.85828 6.25628,-14.40241 12.36784,-19.14905 6.06184,-2.65052 -5.6034,3.97325 -6.44991,6.77931 -3.30788,4.00078 -6.12519,8.55312 -10.4265,11.60064 4.94086,-4.32502 10.71528,-7.90333 16.46987,-11.02968 9.80625,-3.66336 4.26914,8.7678 2.05302,13.03828 -3.95693,7.64594 -9.83648,14.81293 -17.49403,18.93008 -8.92829,5.18418 -12.64229,-6.23556 -9.95461,-13.02804 0.50522,-8.66835 -10.48267,-14.44047 -7.38157,-23.44705 -0.26562,-4.69949 11.44149,-9.59044 5.38665,-2.08594 -4.64048,5.84234 -10.2367,11.51696 -17.62436,13.61077 -6.80486,-3.91322 -5.26418,-13.89159 -4.34665,-20.41631 1.1461,-4.12389 9.45823,-5.22334 3.55171,-0.51711 -5.70434,6.57784 -10.60973,14.35389 -18.54766,18.49499 -8.43759,2.11181 -3.46576,-8.62414 1.93031,-8.64271 8.71732,-0.76899 -1.56764,6.64655 -3.03944,9.83377 -4.39396,6.52849 -9.70323,13.26563 -17.14556,16.34878 -8.429053,0.0789 -4.0867,-11.09225 -0.46157,-14.95497 5.10907,-6.00649 7.70112,-13.7961 13.81937,-18.99223 3.91722,-3.93843 9.00005,-6.30552 13.95315,-8.56178 -4.71243,1.76207 -12.5711,9.75397 -15.78534,2.62289 1.78586,-7.32443 4.55645,-15.52462 12.61145,-18.68097 3.70183,-3.06094 5.34529,0.62531 1.62902,2.60653 -7.48821,7.32015 -14.73328,14.94846 -21.81731,22.6832 -5.20757,5.9278 -9.95947,12.35586 -13.259487,19.5566 -3.582836,4.42894 -11.193654,13.54485 -16.351038,8.8948 0.823892,-6.63376 -0.262387,-13.51037 1.007803,-19.93875 3.318667,-7.77253 12.303939,-10.41342 19.624732,-12.86313 z"
         style="opacity:1;fill:#ffe6a8;fill-opacity:0.46330279;stroke:none;stroke-width:1.88976383;stroke-linecap:round;stroke-linejoin:round;stroke-miterlimit:4;stroke-dasharray:none;stroke-opacity:1;paint-order:fill markers stroke" />
      <ellipse
         ry="4.5180721"
         rx="4.3925705"
         cy="535.01263"
         cx="133.15762"
         id="path4633"
         style="opacity:1;fill:#e84c03;fill-opacity:1;stroke:none;stroke-width:1.00157475;stroke-linecap:round;stroke-linejoin:round;stroke-miterlimit:4;stroke-dasharray:none;stroke-opacity:1;paint-order:stroke fill markers" />
      <ellipse
         ry="4.5180721"
         rx="4.3925705"
         cy="529.2395"
         cx="156.62651"
         id="path4633-5"
         style="opacity:1;fill:#e84c03;fill-opacity:1;stroke:none;stroke-width:1.00157475;stroke-linecap:round;stroke-linejoin:round;stroke-miterlimit:4;stroke-dasharray:none;stroke-opacity:1;paint-order:stroke fill markers" />
      <ellipse
         ry="4.5180721"
         rx="4.3925705"
         cy="524.72144"
         cx="184.23695"
         id="path4633-3"
         style="opacity:1;fill:#e84c03;fill-opacity:1;stroke:none;stroke-width:1.00157475;stroke-linecap:round;stroke-linejoin:round;stroke-miterlimit:4;stroke-dasharray:none;stroke-opacity:1;paint-order:stroke fill markers" />
      <ellipse
         ry="4.5180721"
         rx="4.3925705"
         cy="521.70941"
         cx="208.58434"
         id="path4633-56"
         style="opacity:1;fill:#e84c03;fill-opacity:1;stroke:none;stroke-width:1.00157475;stroke-linecap:round;stroke-linejoin:round;stroke-miterlimit:4;stroke-dasharray:none;stroke-opacity:1;paint-order:stroke fill markers" />
      <ellipse
         ry="4.5180721"
         rx="4.3925705"
         cy="550.07281"
         cx="144.32732"
         id="path4633-2"
         style="opacity:1;fill:#e84c03;fill-opacity:1;stroke:none;stroke-width:1.00157475;stroke-linecap:round;stroke-linejoin:round;stroke-miterlimit:4;stroke-dasharray:none;stroke-opacity:1;paint-order:stroke fill markers" />
      <ellipse
         ry="4.5180721"
         rx="4.3925705"
         cy="563.12506"
         cx="153.36345"
         id="path4633-9"
         style="opacity:1;fill:#e84c03;fill-opacity:1;stroke:none;stroke-width:1.00157475;stroke-linecap:round;stroke-linejoin:round;stroke-miterlimit:4;stroke-dasharray:none;stroke-opacity:1;paint-order:stroke fill markers" />
      <ellipse
         ry="4.5180721"
         rx="4.3925705"
         cy="576.42828"
         cx="163.90562"
         id="path4633-1"
         style="opacity:1;fill:#e84c03;fill-opacity:1;stroke:none;stroke-width:1.00157475;stroke-linecap:round;stroke-linejoin:round;stroke-miterlimit:4;stroke-dasharray:none;stroke-opacity:1;paint-order:stroke fill markers" />
      <ellipse
         ry="4.5180721"
         rx="4.3925705"
         cy="546.05676"
         cx="168.17268"
         id="path4633-27"
         style="opacity:1;fill:#e84c03;fill-opacity:1;stroke:none;stroke-width:1.00157475;stroke-linecap:round;stroke-linejoin:round;stroke-miterlimit:4;stroke-dasharray:none;stroke-opacity:1;paint-order:stroke fill markers" />
      <ellipse
         ry="4.5180721"
         rx="4.3925705"
         cy="555.84595"
         cx="188.25301"
         id="path4633-0"
         style="opacity:1;fill:#e84c03;fill-opacity:1;stroke:none;stroke-width:1.00157475;stroke-linecap:round;stroke-linejoin:round;stroke-miterlimit:4;stroke-dasharray:none;stroke-opacity:1;paint-order:stroke fill markers" />
      <ellipse
         ry="4.5180721"
         rx="4.3925705"
         cy="553.58691"
         cx="120.23093"
         id="path4633-93"
         style="opacity:1;fill:#e84c03;fill-opacity:1;stroke:none;stroke-width:1.00157475;stroke-linecap:round;stroke-linejoin:round;stroke-miterlimit:4;stroke-dasharray:none;stroke-opacity:1;paint-order:stroke fill markers" />
      <ellipse
         ry="4.5180721"
         rx="4.3925705"
         cy="569.65112"
         cx="107.42972"
         id="path4633-6"
         style="opacity:1;fill:#e84c03;fill-opacity:1;stroke:none;stroke-width:1.00157475;stroke-linecap:round;stroke-linejoin:round;stroke-miterlimit:4;stroke-dasharray:none;stroke-opacity:1;paint-order:stroke fill markers" />
      <ellipse
         ry="4.5180721"
         rx="4.3925705"
         cy="586.71942"
         cx="94.628517"
         id="path4633-06"
         style="opacity:1;fill:#e84c03;fill-opacity:1;stroke:none;stroke-width:1.00157475;stroke-linecap:round;stroke-linejoin:round;stroke-miterlimit:4;stroke-dasharray:none;stroke-opacity:1;paint-order:stroke fill markers" />
      <ellipse
         ry="4.5180721"
         rx="4.3925705"
         cy="567.8941"
         cx="132.27911"
         id="path4633-26"
         style="opacity:1;fill:#e84c03;fill-opacity:1;stroke:none;stroke-width:1.00157475;stroke-linecap:round;stroke-linejoin:round;stroke-miterlimit:4;stroke-dasharray:none;stroke-opacity:1;paint-order:stroke fill markers" />
      <ellipse
         ry="4.5180721"
         rx="4.3925705"
         cy="584.71136"
         cx="133.78514"
         id="path4633-18"
         style="opacity:1;fill:#e84c03;fill-opacity:1;stroke:none;stroke-width:1.00157475;stroke-linecap:round;stroke-linejoin:round;stroke-miterlimit:4;stroke-dasharray:none;stroke-opacity:1;paint-order:stroke fill markers" />
      <ellipse
         ry="4.5180721"
         rx="4.3925705"
         cy="564.12909"
         cx="81.074295"
         id="path4633-7"
         style="opacity:1;fill:#e84c03;fill-opacity:1;stroke:none;stroke-width:1.00157475;stroke-linecap:round;stroke-linejoin:round;stroke-miterlimit:4;stroke-dasharray:none;stroke-opacity:1;paint-order:stroke fill markers" />
      <ellipse
         ry="4.5180721"
         rx="4.3925705"
         cy="554.84192"
         cx="100.90362"
         id="path4633-92"
         style="opacity:1;fill:#e84c03;fill-opacity:1;stroke:none;stroke-width:1.00157475;stroke-linecap:round;stroke-linejoin:round;stroke-miterlimit:4;stroke-dasharray:none;stroke-opacity:1;paint-order:stroke fill markers" />
      <ellipse
         ry="4.5180721"
         rx="4.3925705"
         cy="537.02063"
         cx="109.93976"
         id="path4633-02"
         style="opacity:1;fill:#e84c03;fill-opacity:1;stroke:none;stroke-width:1.00157475;stroke-linecap:round;stroke-linejoin:round;stroke-miterlimit:4;stroke-dasharray:none;stroke-opacity:1;paint-order:stroke fill markers" />
      <ellipse
         ry="4.5180721"
         rx="4.3925705"
         cy="536.51862"
         cx="90.61245"
         id="path4633-37"
         style="opacity:1;fill:#e84c03;fill-opacity:1;stroke:none;stroke-width:1.00157475;stroke-linecap:round;stroke-linejoin:round;stroke-miterlimit:4;stroke-dasharray:none;stroke-opacity:1;paint-order:stroke fill markers" />
      <ellipse
         ry="4.5180721"
         rx="4.3925705"
         cy="536.51862"
         cx="71.787148"
         id="path4633-59"
         style="opacity:1;fill:#e84c03;fill-opacity:1;stroke:none;stroke-width:1.00157475;stroke-linecap:round;stroke-linejoin:round;stroke-miterlimit:4;stroke-dasharray:none;stroke-opacity:1;paint-order:stroke fill markers" />
      <ellipse
         ry="4.5180721"
         rx="4.3925705"
         cy="521.45837"
         cx="123.99599"
         id="path4633-22"
         style="opacity:1;fill:#e84c03;fill-opacity:1;stroke:none;stroke-width:1.00157475;stroke-linecap:round;stroke-linejoin:round;stroke-miterlimit:4;stroke-dasharray:none;stroke-opacity:1;paint-order:stroke fill markers" />
      <ellipse
         ry="4.5180721"
         rx="4.3925705"
         cy="522.21136"
         cx="106.6767"
         id="path4633-8"
         style="opacity:1;fill:#e84c03;fill-opacity:1;stroke:none;stroke-width:1.00157475;stroke-linecap:round;stroke-linejoin:round;stroke-miterlimit:4;stroke-dasharray:none;stroke-opacity:1;paint-order:stroke fill markers" />
      <ellipse
         ry="4.5180721"
         rx="4.3925705"
         cy="513.67725"
         cx="94.879517"
         id="path4633-97"
         style="opacity:1;fill:#e84c03;fill-opacity:1;stroke:none;stroke-width:1.00157475;stroke-linecap:round;stroke-linejoin:round;stroke-miterlimit:4;stroke-dasharray:none;stroke-opacity:1;paint-order:stroke fill markers" />
      <ellipse
         ry="3.8744681"
         rx="3.7650604"
         cy="505.00153"
         cx="116.34036"
         id="path4633-36"
         style="opacity:1;fill:#e84c03;fill-opacity:1;stroke:none;stroke-width:1.00157475;stroke-linecap:round;stroke-linejoin:round;stroke-miterlimit:4;stroke-dasharray:none;stroke-opacity:1;paint-order:stroke fill markers" />
      <ellipse
         ry="3.6170266"
         rx="3.5140564"
         cy="494.45288"
         cx="111.32029"
         id="path4633-12"
         style="opacity:1;fill:#e84c03;fill-opacity:1;stroke:none;stroke-width:1.00157475;stroke-linecap:round;stroke-linejoin:round;stroke-miterlimit:4;stroke-dasharray:none;stroke-opacity:1;paint-order:stroke fill markers" />
      <ellipse
         ry="4.5180721"
         rx="4.3925705"
         cy="489.58087"
         cx="135.04016"
         id="path4633-931"
         style="opacity:1;fill:#e84c03;fill-opacity:1;stroke:none;stroke-width:1.00157475;stroke-linecap:round;stroke-linejoin:round;stroke-miterlimit:4;stroke-dasharray:none;stroke-opacity:1;paint-order:stroke fill markers" />
      <ellipse
         ry="4.5180721"
         rx="4.3925705"
         cy="506.64914"
         cx="135.04016"
         id="path4633-94"
         style="opacity:1;fill:#e84c03;fill-opacity:1;stroke:none;stroke-width:1.00157475;stroke-linecap:round;stroke-linejoin:round;stroke-miterlimit:4;stroke-dasharray:none;stroke-opacity:1;paint-order:stroke fill markers" />
      <ellipse
         ry="4.5180721"
         rx="4.3925705"
         cy="516.68933"
         cx="145.33133"
         id="path4633-78"
         style="opacity:1;fill:#e84c03;fill-opacity:1;stroke:none;stroke-width:1.00157475;stroke-linecap:round;stroke-linejoin:round;stroke-miterlimit:4;stroke-dasharray:none;stroke-opacity:1;paint-order:stroke fill markers" />
      <ellipse
         ry="4.5180721"
         rx="4.3925705"
         cy="499.11902"
         cx="154.86948"
         id="path4633-4"
         style="opacity:1;fill:#e84c03;fill-opacity:1;stroke:none;stroke-width:1.00157475;stroke-linecap:round;stroke-linejoin:round;stroke-miterlimit:4;stroke-dasharray:none;stroke-opacity:1;paint-order:stroke fill markers" />
      <ellipse
         ry="4.5180721"
         rx="4.3925705"
         cy="482.30176"
         cx="164.15663"
         id="path4633-50"
         style="opacity:1;fill:#e84c03;fill-opacity:1;stroke:none;stroke-width:1.00157475;stroke-linecap:round;stroke-linejoin:round;stroke-miterlimit:4;stroke-dasharray:none;stroke-opacity:1;paint-order:stroke fill markers" />
      <ellipse
         ry="4.5180721"
         rx="4.3925705"
         cy="509.15918"
         cx="169.67871"
         id="path4633-361"
         style="opacity:1;fill:#e84c03;fill-opacity:1;stroke:none;stroke-width:1.00157475;stroke-linecap:round;stroke-linejoin:round;stroke-miterlimit:4;stroke-dasharray:none;stroke-opacity:1;paint-order:stroke fill markers" />
      <ellipse
         ry="4.5180721"
         rx="4.3925705"
         cy="495.10297"
         cx="188.25301"
         id="path4633-063"
         style="opacity:1;fill:#e84c03;fill-opacity:1;stroke:none;stroke-width:1.00157475;stroke-linecap:round;stroke-linejoin:round;stroke-miterlimit:4;stroke-dasharray:none;stroke-opacity:1;paint-order:stroke fill markers" />
      <path
         inkscape:connector-curvature="0"
         style="fill:#fc6f06;fill-opacity:1;stroke:none;stroke-width:1.88976383;stroke-linecap:butt;stroke-linejoin:miter;stroke-miterlimit:4;stroke-dasharray:none;stroke-opacity:1;paint-order:fill markers stroke"
         d="m 159.81055,324.01562 c -14.25232,0.004 -28.27166,2.88797 -36.48047,6.42383 -14.60924,6.29276 -35.04592,11.76552 -58.099611,42.12891 -13.919574,18.33311 -14.397887,42.95271 -3.396485,58.38476 1.089966,1.52894 2.295701,3.00126 3.587891,4.41407 -0.504274,-0.63359 -0.993105,-1.27618 -1.458984,-1.92969 -11.001402,-15.43206 -10.52309,-40.05166 3.396484,-58.38477 23.053691,-30.36339 43.490365,-35.83614 58.099605,-42.1289 8.20881,-3.53586 22.22815,-6.41996 36.48047,-6.42383 14.25232,-0.004 28.73674,2.87373 37.89063,10.83203 1.68123,1.46164 3.18436,2.95492 4.55859,4.46289 -1.88342,-2.3577 -4.08792,-4.68722 -6.6875,-6.94726 -9.15389,-7.9583 -23.6383,-10.83591 -37.89062,-10.83204 z"
         transform="translate(2.484813,149.49566)"
         id="path5763" />
    </g>
  </g>
</svg>
